<svg width="27" height="26" viewBox="0 0 27 26" fill="none" xmlns="http://www.w3.org/2000/svg">
<path d="M7 2.16666L3.75 6.49999V21.6667C3.75 22.2413 3.97827 22.7924 4.3846 23.1987C4.79093 23.6051 5.34203 23.8333 5.91667 23.8333H21.0833C21.658 23.8333 22.2091 23.6051 22.6154 23.1987C23.0217 22.7924 23.25 22.2413 23.25 21.6667V6.49999L20 2.16666H7Z" stroke="#181A20" stroke-width="2" stroke-linecap="round" stroke-linejoin="round"/>
<path d="M3.75 6.5H23.25" stroke="#181A20" stroke-width="2" stroke-linecap="round" stroke-linejoin="round"/>
<path d="M17.8334 10.8333C17.8334 11.9826 17.3769 13.0848 16.5642 13.8975C15.7516 14.7101 14.6494 15.1667 13.5001 15.1667C12.3508 15.1667 11.2486 14.7101 10.436 13.8975C9.62329 13.0848 9.16675 11.9826 9.16675 10.8333" stroke="#181A20" stroke-width="2" stroke-linecap="round" stroke-linejoin="round"/>
</svg>
