<svg width="15" height="14" viewBox="0 0 15 14" fill="none" xmlns="http://www.w3.org/2000/svg">
<path d="M5.12109 2.81641C5.26693 2.94401 5.33984 3.09896 5.33984 3.28125C5.33984 3.46354 5.26693 3.60938 5.12109 3.71875L2.55078 6.34375H13.6523C14.0534 6.38021 14.2721 6.59896 14.3086 7C14.2721 7.40104 14.0534 7.61979 13.6523 7.65625H2.55078L5.14844 10.2539C5.40365 10.5638 5.40365 10.8737 5.14844 11.1836C4.83854 11.4388 4.52865 11.4388 4.21875 11.1836L0.5 7.46484C0.244792 7.15495 0.244792 6.84505 0.5 6.53516L4.21875 2.81641C4.52865 2.5612 4.82943 2.5612 5.12109 2.81641Z" fill="#101010" fill-opacity="0.3"/>
</svg>
