<svg width="50" height="50" viewBox="0 0 50 50" fill="none" xmlns="http://www.w3.org/2000/svg">
<rect x="0.5" y="0.5" width="49" height="49" rx="24.5" fill="white"/>
<rect x="0.5" y="0.5" width="49" height="49" rx="24.5" stroke="#181A20"/>
<path d="M17 11.6667L13 17V35.6667C13 36.3739 13.281 37.0522 13.781 37.5523C14.2811 38.0524 14.9594 38.3333 15.6667 38.3333H34.3333C35.0406 38.3333 35.7189 38.0524 36.219 37.5523C36.719 37.0522 37 36.3739 37 35.6667V17L33 11.6667H17Z" stroke="#181A20" stroke-width="1.5" stroke-linecap="round" stroke-linejoin="round"/>
<path d="M13 17H37" stroke="#181A20" stroke-width="1.5" stroke-linecap="round" stroke-linejoin="round"/>
<path d="M30.3334 22.3333C30.3334 23.7478 29.7715 25.1044 28.7713 26.1046C27.7711 27.1048 26.4145 27.6667 25 27.6667C23.5855 27.6667 22.229 27.1048 21.2288 26.1046C20.2286 25.1044 19.6667 23.7478 19.6667 22.3333" stroke="#181A20" stroke-width="1.5" stroke-linecap="round" stroke-linejoin="round"/>
</svg>
