<svg width="60" height="60" viewBox="0 0 60 60" fill="none" xmlns="http://www.w3.org/2000/svg">
<path d="M52.0864 27.8223C52.4682 27.3729 52.8303 26.9047 53.2372 26.4808C53.6441 26.0568 54.1142 26.0086 54.5988 26.3614C55.0833 26.7142 55.1597 27.3004 54.7304 27.7391C53.8087 28.6915 52.887 29.6413 51.9349 30.567C51.2766 31.2082 50.4786 31.2015 49.8281 30.5589C48.9445 29.6923 48.0847 28.8015 47.2327 27.9081C46.7363 27.3903 46.7179 26.8282 47.1472 26.3721C47.5764 25.916 48.1703 25.9173 48.7089 26.4365C48.9722 26.6941 49.2211 26.9731 49.4752 27.2414L49.6661 27.1649C49.5029 26.2916 49.3791 25.4089 49.171 24.5477C47.1682 16.2438 40.1274 9.71343 31.8199 8.43364C20.4378 6.68165 9.87593 14.0827 7.47414 25.4961C5.04338 37.0423 12.362 48.6892 23.6704 51.2528C33.9781 53.595 44.008 48.3672 48.2216 38.4563C48.5601 37.6514 48.9393 37.3831 49.5239 37.5333C50.2732 37.7171 50.5655 38.3382 50.2442 39.1431C49.2566 41.5954 47.9609 43.8705 46.1978 45.8211C39.7719 52.931 31.8226 55.5241 22.6947 53.1202C13.418 50.6773 7.60582 44.3199 5.5477 34.7953C2.76273 21.9009 11.1216 9.1728 23.8706 6.48176C36.9343 3.72633 49.8663 13.0054 51.7098 26.4606C51.7638 26.8631 51.8191 27.2508 51.8744 27.6465L52.0864 27.8223Z" fill="#5183F4"/>
<path d="M46.456 30.002C46.4309 40.1303 38.3108 48.351 28.3848 48.2946C23.6152 48.2712 19.0494 46.3252 15.6885 42.8832C12.3276 39.4413 10.4459 34.7844 10.4561 29.9336C10.4798 19.8429 18.5789 11.6423 28.4864 11.6759C38.4203 11.7161 46.4811 19.9301 46.456 30.002ZM44.3059 28.8551C43.7981 19.9623 36.2807 13.9994 29.543 13.9148C29.473 14.6567 29.6749 15.6293 28.5734 15.7178C27.2188 15.8278 27.4588 14.6741 27.3863 13.8585C18.786 14.3723 12.7935 21.7733 12.6392 28.8604C14.1231 29.0455 14.4238 29.2079 14.4331 29.9095C14.4515 31.2657 13.3778 30.9827 12.5996 31.0994C13.0665 39.6729 20.2106 45.8558 27.4008 46.0798C27.4391 45.2964 27.2306 44.2594 28.4336 44.242C29.6801 44.2232 29.4744 45.3004 29.5535 46.0959C37.9955 45.6559 44.1687 38.1181 44.2611 31.1047C42.8101 30.9424 42.4513 30.7197 42.4553 29.9806C42.4592 29.2414 42.7864 29.0415 44.3059 28.8551Z" fill="#5183F4"/>
<path d="M27.3956 22.7595C27.3956 21.4904 27.3956 20.22 27.3956 18.9496C27.3956 18.1193 27.7492 17.6927 28.4141 17.6819C29.1068 17.6685 29.4934 18.1126 29.4961 18.9698C29.504 21.4873 29.504 24.0048 29.4961 26.5224C29.4961 26.9517 29.5594 27.2347 29.9803 27.4869C30.4952 27.7947 30.9024 28.2586 31.1448 28.8137C31.3871 29.3688 31.4523 29.987 31.3314 30.5817C31.0913 31.7663 30.1228 32.7362 28.9921 32.9253C27.6726 33.1453 26.567 32.602 25.8598 31.4497C25.7855 31.3449 25.6904 31.2572 25.5806 31.1922C25.4708 31.1273 25.3488 31.0866 25.2225 31.0727C23.7118 31.0405 22.1984 31.0593 20.6863 31.054C19.8221 31.054 19.3946 30.6944 19.3907 29.9915C19.3867 29.2885 19.8155 28.9183 20.6718 28.9183C22.1403 28.9183 23.6088 28.9035 25.0773 28.9183C25.4864 28.9183 25.745 28.8351 25.9706 28.4434C26.1811 28.0536 26.4893 27.7273 26.8638 27.4977C27.3375 27.2387 27.4153 26.9114 27.4061 26.4312C27.3784 25.2117 27.3942 23.9856 27.3956 22.7595ZM29.2625 30.0438C29.2641 29.9274 29.2429 29.8118 29.2002 29.7038C29.1575 29.5958 29.0941 29.4975 29.0137 29.4147C28.9332 29.3318 28.8374 29.266 28.7318 29.2211C28.6262 29.1762 28.5128 29.153 28.3983 29.1531C27.9616 29.1745 27.5631 29.6065 27.6067 30.0465C27.6594 30.5281 27.9312 30.8286 28.4273 30.8125C28.9445 30.7964 29.2084 30.4744 29.2625 30.0438Z" fill="#5183F4"/>
</svg>
