<svg width="98" height="119" viewBox="0 0 98 119" fill="none" xmlns="http://www.w3.org/2000/svg">
<path d="M49.0003 58.1667C64.6484 58.1667 77.3337 45.2948 77.3337 29.4167C77.3337 13.5385 64.6484 0.666656 49.0003 0.666656C33.3523 0.666656 20.667 13.5385 20.667 29.4167C20.667 45.2948 33.3523 58.1667 49.0003 58.1667Z" fill="#5183F4"/>
<path d="M97.3337 97.0951C96.7737 97.7341 96.1986 98.3629 95.6084 98.9815C89.5838 105.31 82.3487 110.346 74.3387 113.786C66.3287 117.226 57.7096 119 49.0003 119C40.2911 119 31.672 117.226 23.662 113.786C15.652 110.346 8.41684 105.31 2.39228 98.9815C1.80431 98.3651 1.22921 97.7363 0.666992 97.0951C9.31192 78.9933 27.7139 66.5 49.0003 66.5C70.2867 66.5 88.6887 78.9933 97.3337 97.0951Z" fill="#5183F4"/>
</svg>
