<svg width="30" height="30" viewBox="0 0 30 30" fill="none" xmlns="http://www.w3.org/2000/svg">
<path d="M26.3259 17.6689L26.3225 17.6729C26.0046 18.0441 25.466 17.9664 25.1967 17.5015C24.5242 16.3416 23.8591 15.1771 23.1907 14.0148C23.1438 13.9332 23.0953 13.8532 23.0292 13.7418C21.718 14.6504 20.2647 15.3285 18.7304 15.7476C18.9077 16.7676 19.081 17.7631 19.2543 18.7591C19.3046 19.0481 19.3593 19.3365 19.4011 19.6266C19.4666 20.0835 19.256 20.4228 18.8755 20.4885C18.4763 20.557 18.1584 20.3171 18.0738 19.8465C17.8699 18.7203 17.6785 17.5918 17.4804 16.4644C17.4578 16.3347 17.4324 16.2062 17.4013 16.0383C15.8067 16.2891 14.1831 16.2866 12.5893 16.0309C12.4713 16.7042 12.3572 17.3536 12.2432 18.003C12.1308 18.6272 12.0247 19.252 11.9118 19.8751C11.8299 20.316 11.5087 20.557 11.1163 20.4885C10.7335 20.4211 10.5144 20.0658 10.5906 19.6278C10.7973 18.4349 11.0043 17.2419 11.2117 16.0486C11.2275 15.9561 11.2343 15.8618 11.2478 15.7425C9.72123 15.3213 8.27575 14.6428 6.97214 13.7356C6.91116 13.8361 6.85583 13.9229 6.80276 14.0114L4.86225 17.4056C4.81385 17.4974 4.75874 17.5854 4.69739 17.6689C4.59979 17.799 4.45836 17.8883 4.29995 17.9199C4.14154 17.9514 3.97719 17.9231 3.83808 17.8402C3.69295 17.7597 3.58357 17.6264 3.53218 17.4672C3.48079 17.3081 3.49125 17.1351 3.56143 16.9835C3.68564 16.7191 3.84033 16.4695 3.98544 16.2154C4.61213 15.1165 5.24053 14.0183 5.80286 13.0348C5.2665 12.4408 4.7595 11.8834 4.25701 11.3214C4.06787 11.1107 3.88325 10.896 3.70653 10.6749C3.42423 10.3226 3.44794 9.92221 3.75678 9.66635C4.06561 9.41049 4.46534 9.46646 4.7482 9.81198C5.65607 10.9222 6.68137 11.9028 7.86815 12.7036C10.3298 14.3644 13.0483 15.0309 15.9893 14.8247C18.2956 14.6761 20.515 13.8783 22.3968 12.5214C23.4222 11.7842 24.3477 10.9144 25.1498 9.9342C25.5902 9.40135 25.9645 9.35966 26.3586 9.80513C26.443 9.9018 26.4926 10.0245 26.4992 10.1533C26.5059 10.2821 26.4693 10.4094 26.3953 10.5145C25.7584 11.422 24.9437 12.1621 24.1183 12.9217L26.3863 16.8424C26.4613 16.9698 26.4958 17.1174 26.485 17.2653C26.4742 17.4131 26.4186 17.5541 26.3259 17.6689Z" fill="#B1B1B1"/>
</svg>
