<svg width="26" height="26" viewBox="0 0 26 26" fill="none" xmlns="http://www.w3.org/2000/svg">
<path d="M4.12692 10.0514C3.95283 9.05312 3.95787 8.0337 4.14181 7.03699C4.15813 6.94943 4.17586 6.86203 4.19501 6.7748C4.70428 4.61278 5.90015 2.88417 7.78261 1.589C8.97123 0.771631 10.3551 0.252626 11.8075 0.0794812C13.7359 -0.163874 15.5643 0.151266 17.2666 1.02948C18.8657 1.85373 20.0892 3.02469 20.9239 4.52148C22.0416 6.52758 22.3003 8.87109 21.6452 11.0564C21.2535 12.3599 20.5395 13.5538 19.5636 14.5372C18.4212 15.7162 16.9505 16.5582 15.3249 16.9642C14.9105 17.0695 14.486 17.1388 14.0684 17.2243V20.1023H14.3652C14.9924 20.1049 15.6207 20.0937 16.2473 20.113C16.5066 20.1227 16.7524 20.2259 16.9355 20.4018C17.1186 20.5777 17.2255 20.8133 17.2347 21.0615C17.2491 21.3089 17.1673 21.5527 17.0051 21.7458C16.8428 21.9389 16.6115 22.0677 16.3558 22.1072C16.2071 22.1272 16.057 22.1362 15.9069 22.1342C15.2993 22.1367 14.6918 22.1342 14.0551 22.1342V22.43C14.0551 23.2003 14.0349 23.971 14.0609 24.7408C14.0758 25.1634 13.9705 25.4963 13.7088 25.7321C13.5143 25.9043 13.259 26 12.9941 26C12.7291 26 12.4738 25.9043 12.2794 25.7321C12.0134 25.4958 11.907 25.1629 11.9277 24.7398C11.9538 24.1228 11.933 23.5042 11.933 22.8866V22.1352C11.3856 22.1352 10.8691 22.1377 10.3478 22.1352C10.1096 22.1411 9.87122 22.1314 9.6344 22.1062C9.37835 22.0687 9.1462 21.9409 8.9835 21.748C8.82081 21.5551 8.73933 21.311 8.75505 21.0635C8.76501 20.8158 8.87169 20.5807 9.054 20.4046C9.23632 20.2285 9.48101 20.1243 9.73973 20.1125C10.1366 20.0942 10.535 20.1038 10.9324 20.1028C11.2569 20.1028 11.5819 20.1028 11.9208 20.1028V17.2172C11.8674 17.2005 11.8131 17.1869 11.758 17.1765C10.6334 17.0396 9.54845 16.6902 8.5662 16.1486C6.39257 14.944 4.94881 13.184 4.29874 10.8538C4.22751 10.5893 4.17017 10.3215 4.12692 10.0514ZM12.997 15.2342C16.7995 15.2311 19.8977 12.2579 19.8892 8.62084C19.885 6.87439 19.1585 5.20055 17.8687 3.96514C16.5788 2.72973 14.8304 2.03323 13.0055 2.02785C9.20723 2.01716 6.10371 4.98069 6.09999 8.62593C6.09627 12.2712 9.19818 15.2372 12.9964 15.2342H12.997Z" fill="#5183F4"/>
</svg>
