<svg width="24" height="24" viewBox="0 0 24 24" fill="none" xmlns="http://www.w3.org/2000/svg">
<path d="M15.958 1.99976H15.959C16.0338 1.99982 16.1086 2.00869 16.1816 2.02515H16.1846C16.3265 2.05643 16.4374 2.08185 16.542 2.11597C17.4681 2.41926 18.0784 3.00088 18.3975 3.89233L18.457 4.07397C18.4765 4.13891 18.5056 4.21916 18.5225 4.26929L18.6367 4.61108H20.7441C20.8786 4.61108 20.9665 4.60765 21.0605 4.61401L21.0723 4.61499C21.1191 4.617 21.1643 4.63628 21.1973 4.66968C21.2303 4.7031 21.2486 4.74869 21.25 4.79565L21.251 4.79956C21.2534 4.85916 21.2334 4.90726 21.207 4.93921C21.1946 4.95424 21.1801 4.9675 21.1621 4.97729L21.0977 4.99683C20.8575 5.02206 20.634 5.0086 20.3193 5.0105L19.1719 5.00757H19.1709C19.0596 5.00534 18.8794 5.01833 18.7139 5.14136C18.5495 5.26358 18.4847 5.43119 18.4541 5.53784V5.53882C18.0941 6.79552 17.0195 7.61058 15.7588 7.61206C14.4943 7.61342 13.4041 6.79465 13.0537 5.5564H13.0547C13.0095 5.39502 12.9117 5.20086 12.6953 5.0896C12.5238 5.00158 12.3411 5.00854 12.292 5.00854H2.37109C2.29592 5.01048 2.22079 5.00537 2.14648 4.9939C2.10319 4.98499 2.06397 4.96077 2.03711 4.92554C2.00982 4.88951 1.99723 4.84462 2.00098 4.79956V4.79175L2.00195 4.78491C2.00439 4.741 2.02289 4.69906 2.05371 4.66772C2.08445 4.63668 2.12539 4.61817 2.16895 4.61499L2.17773 4.61401C2.24352 4.60823 2.30873 4.60913 2.41699 4.60913L12.2598 4.61401C12.3856 4.61401 12.5853 4.60088 12.7666 4.47046C12.9486 4.33933 13.0249 4.15339 13.0654 4.02808C13.2539 3.44595 13.5388 3.00529 13.9072 2.68433C14.2758 2.36326 14.753 2.14017 15.3574 2.03003L15.3711 2.0271C15.4527 2.00988 15.5358 2.00059 15.6191 1.99878L15.958 1.99976ZM15.7676 2.40015C15.1305 2.39618 14.517 2.64508 14.0635 3.09253C13.6107 3.53938 13.354 4.14783 13.3486 4.78394C13.3446 5.09952 13.4031 5.41284 13.5205 5.70581C13.6379 5.99863 13.8116 6.26553 14.0322 6.49097C14.2531 6.71652 14.5171 6.89673 14.8076 7.02026C15.0975 7.14345 15.4087 7.2069 15.7236 7.20972V7.21069L15.7246 7.20972L15.7256 7.21069V7.20972C16.0423 7.2134 16.3565 7.15584 16.6504 7.03784C16.9451 6.91951 17.2138 6.74374 17.4404 6.52124C17.6668 6.2989 17.8471 6.03414 17.9707 5.74194C18.0944 5.44946 18.1593 5.1347 18.1611 4.81714V4.81421C18.1608 4.17788 17.9088 3.56703 17.4609 3.11499C17.0131 2.66313 16.4047 2.40625 15.7686 2.40015H15.7676Z" fill="#181A20" stroke="#181A20"/>
<path d="M15.7793 16.3879C17.0236 16.3986 18.1225 17.2365 18.4424 18.4124C18.4746 18.5308 18.5418 18.72 18.7227 18.8538C18.9022 18.9864 19.1009 18.9942 19.2139 18.9924C19.8126 18.9829 20.413 18.9846 21.0146 18.9924H21.0166C21.1327 18.9936 21.1955 19.0401 21.2256 19.0891L21.2451 19.137C21.2712 19.252 21.2157 19.3267 21.1689 19.3518C21.1057 19.3754 21.0392 19.3889 20.9717 19.3879H20.957C20.386 19.3957 19.8174 19.3909 19.2363 19.3909H18.6035L18.5068 19.7659C18.392 20.2107 18.2198 20.592 17.96 20.9182C17.4884 21.5062 16.8959 21.8551 16.1553 21.967L16.1455 21.969L16.1367 21.97C16.047 21.987 15.9556 21.9974 15.8643 22.0002H15.6016L15.4629 21.9915C15.4166 21.9856 15.3705 21.9768 15.3252 21.9651L15.3242 21.9641L14.9688 21.8723C14.8624 21.8425 14.7662 21.8107 14.6738 21.7708L14.6709 21.7698L14.5195 21.7014C13.7815 21.3443 13.3001 20.7679 13.0635 19.9612C13.0254 19.8311 12.9497 19.6457 12.7646 19.5168C12.5874 19.3935 12.3951 19.3831 12.2832 19.3831H12.2822C8.98715 19.3886 5.69156 19.3895 2.39648 19.386H2.38477L2.37305 19.387C2.28736 19.391 2.20164 19.3843 2.11719 19.3694C2.09429 19.3621 2.06706 19.346 2.04297 19.3127C2.01608 19.2756 2.00094 19.2293 2.00195 19.1848V19.177C2.00235 19.1366 2.01641 19.097 2.04199 19.0657C2.06665 19.0356 2.10092 19.0151 2.13867 19.0061C2.2158 18.9935 2.29392 18.9884 2.37207 18.9905H2.38672C5.67492 18.9905 8.96268 18.9917 12.25 18.9934H12.251C12.3596 18.9934 12.5633 18.9876 12.75 18.8635C12.951 18.7298 13.0324 18.5292 13.0742 18.3811L13.0752 18.3801C13.4058 17.2047 14.5241 16.3779 15.7793 16.3879ZM15.75 16.7893C15.4352 16.7885 15.1231 16.8501 14.832 16.97C14.5403 17.0901 14.2751 17.2666 14.0518 17.4895C13.8284 17.7125 13.6509 17.9772 13.5303 18.2688C13.4096 18.5604 13.3481 18.8732 13.3486 19.1887L13.3496 19.6877H13.4043C13.4986 20.1373 13.719 20.5544 14.0469 20.886C14.4943 21.3383 15.1031 21.5951 15.7393 21.5999H15.7432C16.3791 21.6004 16.9898 21.3502 17.4424 20.9036C17.895 20.4568 18.1533 19.8491 18.1611 19.2131V19.2102C18.163 18.8926 18.1019 18.5774 17.9814 18.2834C17.861 17.9897 17.6831 17.7223 17.459 17.4973C17.235 17.2726 16.9689 17.0944 16.6758 16.9729C16.3824 16.8514 16.0675 16.7888 15.75 16.7893Z" fill="#181A20" stroke="#181A20"/>
<path d="M7.51953 9.19287C8.78583 9.20658 9.90912 10.0395 10.2539 11.4214L10.3486 11.8003H20.9609C21.0974 11.8003 21.167 11.8377 21.1963 11.8618C21.2202 11.8814 21.2449 11.9128 21.25 11.9829V11.9839C21.254 12.0362 21.237 12.0883 21.2031 12.1284C21.1778 12.1583 21.1444 12.1799 21.1074 12.1909L21.0684 12.1987C21.0188 12.2029 20.981 12.1997 20.873 12.1997H10.3447L10.251 12.5806C10.0649 13.3347 9.67582 13.9149 9.05566 14.3354H9.05469C8.59318 14.65 8.04577 14.815 7.4873 14.8081H7.48438C6.38354 14.8026 5.12858 14.1011 4.73926 12.5767L4.64355 12.1997H2.23047C2.13918 12.199 2.08309 12.1671 2.05273 12.1362C2.0232 12.1061 2.00038 12.0603 2.00391 11.9927V11.9907C2.00708 11.9242 2.03231 11.884 2.05957 11.8589C2.08779 11.833 2.14106 11.8037 2.23242 11.8032H2.2334C2.8991 11.798 3.56559 11.8003 4.25488 11.8003H4.64648L4.74023 11.4204C5.10322 9.9533 6.33704 9.17962 7.51953 9.19287ZM7.52539 9.59131C6.20993 9.57071 5.10584 10.6549 5.09082 11.9702V11.9722C5.08641 12.6128 5.33694 13.2293 5.78613 13.686C6.23526 14.1427 6.84682 14.4033 7.4873 14.4097H7.49121C8.12822 14.4111 8.74026 14.1592 9.19238 13.7104C9.64424 13.2617 9.89996 12.652 9.90332 12.0151L9.90234 12.0142C9.90712 11.3781 9.66033 10.7661 9.21484 10.312C8.76912 9.85772 8.16173 9.59838 7.52539 9.59131Z" fill="#181A20" stroke="#181A20"/>
</svg>
