<svg width="32" height="32" viewBox="0 0 32 32" fill="none" xmlns="http://www.w3.org/2000/svg">
<g clip-path="url(#clip0_7451_975)">
<path d="M3.22287 24.1333C3.26272 23.8466 3.31822 23.5623 3.38912 23.2817C3.83502 21.6698 4.91299 20.5479 6.23612 19.6429C7.93543 18.4754 9.83701 17.8041 11.842 17.4371C15.8658 16.6993 19.8176 16.9107 23.6407 18.4785C25.0082 19.039 26.2524 19.8101 27.2684 20.9126C29.337 23.1578 29.3063 25.9891 27.1917 28.1903C25.7958 29.6388 24.0659 30.5253 22.1758 31.0781C17.5536 32.4306 12.9659 32.3439 8.45412 30.5717C7.09191 30.0375 5.85535 29.2726 4.83254 28.1964C3.94611 27.2674 3.33473 26.1904 3.23743 24.8673C3.23647 24.8491 3.23443 24.831 3.2313 24.8131C3.19206 24.5885 3.18921 24.3589 3.22287 24.1333ZM16.0213 29.6915C17.903 29.7008 19.7517 29.4646 21.5475 28.8901C23.0454 28.4109 24.4589 27.7629 25.5775 26.5961C26.696 25.4294 26.6677 23.5519 25.5445 22.3805C25.3362 22.1456 25.1 21.9376 24.8412 21.7611C24.1946 21.357 23.5571 20.9095 22.8569 20.6254C18.5473 18.8942 14.1841 18.8687 9.80713 20.3575C8.52383 20.7934 7.34091 21.4414 6.40008 22.4564C5.88834 23.0063 5.60133 23.7315 5.59664 24.4864C5.59196 25.2413 5.86993 25.97 6.37479 26.5265C7.049 27.2627 7.86954 27.7884 8.75751 28.2096C11.0621 29.3013 13.503 29.6853 16.0213 29.6915Z" fill="#B1B1B1"/>
<path d="M23.3734 7.4418C23.3734 11.539 20.066 14.8882 16.0184 14.8921C11.9709 14.896 8.66343 11.563 8.64734 7.45341C8.63125 3.34386 11.9418 -0.00695712 16.0253 1.08477e-05C16.9914 0.000925315 17.9478 0.194157 18.84 0.568665C19.7321 0.943173 20.5425 1.49162 21.2249 2.18269C21.9073 2.87375 22.4482 3.69389 22.8169 4.59626C23.1855 5.49863 23.3746 6.46556 23.3734 7.4418ZM16.0184 12.6035C17.3703 12.5974 18.6652 12.0527 19.622 11.0876C20.5788 10.1224 21.1202 8.81486 21.1286 7.44877C21.134 4.60197 18.8141 2.25686 16.0023 2.26692C13.1906 2.27699 10.896 4.59732 10.8921 7.42632C10.8948 8.79885 11.4356 10.1144 12.3962 11.0848C13.3567 12.0551 14.6587 12.6013 16.0169 12.6035H16.0184Z" fill="#B1B1B1"/>
</g>
<defs>
<clipPath id="clip0_7451_975">
<rect width="32" height="32" fill="white"/>
</clipPath>
</defs>
</svg>
