<svg width="340" height="274" viewBox="0 0 340 274" fill="none" xmlns="http://www.w3.org/2000/svg">
<g filter="url(#filter0_d_27_1228)">
<g clip-path="url(#clip0_27_1228)">
<rect x="53" y="49" width="234" height="168" rx="20" fill="white"/>
<path d="M86.6526 129.948C70.5695 120.588 55.3799 147.221 49.7955 161.707H41V234H299V165.05C291.74 181.626 269.012 206.336 236.175 172.572C195.13 130.366 172.513 149.171 165.812 153.35C159.11 157.528 136.494 188.033 116.39 172.572C96.2857 157.11 106.756 141.649 86.6526 129.948Z" fill="url(#paint0_linear_27_1228)" stroke="#5183F4" stroke-width="2" stroke-linecap="round"/>
<path d="M79.8 73.8H82.3V81.94C82.3 83.0267 82.0833 83.9667 81.65 84.76C81.2233 85.5533 80.62 86.1667 79.84 86.6C79.0667 87.0267 78.1533 87.24 77.1 87.24C76.04 87.24 75.1167 87.0267 74.33 86.6C73.55 86.1667 72.9433 85.5533 72.51 84.76C72.0833 83.9667 71.87 83.0267 71.87 81.94V73.8H74.36V81.81C74.36 82.4767 74.4733 83.0467 74.7 83.52C74.9333 83.9867 75.2567 84.3433 75.67 84.59C76.0833 84.83 76.56 84.95 77.1 84.95C77.6333 84.95 78.1033 84.83 78.51 84.59C78.9167 84.3433 79.2333 83.9867 79.46 83.52C79.6867 83.0467 79.8 82.4767 79.8 81.81V73.8ZM87.9872 78.55C88.4805 78.55 88.9372 78.5967 89.3572 78.69C89.7772 78.7767 90.1305 78.8767 90.4172 78.99C90.7105 79.1033 90.9039 79.2 90.9972 79.28L90.1272 80.81C89.9939 80.7033 89.7539 80.5767 89.4072 80.43C89.0672 80.2833 88.6872 80.21 88.2672 80.21C87.8872 80.21 87.5672 80.2767 87.3072 80.41C87.0472 80.5367 86.9172 80.73 86.9172 80.99C86.9172 81.25 87.0572 81.4567 87.3372 81.61C87.6172 81.7633 88.0072 81.8967 88.5072 82.01C88.9272 82.0967 89.3405 82.23 89.7472 82.41C90.1539 82.5833 90.4905 82.8367 90.7572 83.17C91.0239 83.4967 91.1572 83.9333 91.1572 84.48C91.1572 85.02 91.0405 85.47 90.8072 85.83C90.5805 86.1833 90.2772 86.4633 89.8972 86.67C89.5172 86.8767 89.1005 87.0233 88.6472 87.11C88.1939 87.1967 87.7439 87.24 87.2972 87.24C86.7172 87.24 86.2072 87.1833 85.7672 87.07C85.3272 86.9633 84.9639 86.84 84.6772 86.7C84.3972 86.5533 84.1972 86.43 84.0772 86.33L84.9472 84.63C85.1205 84.7833 85.4039 84.9533 85.7972 85.14C86.1972 85.32 86.6272 85.41 87.0872 85.41C87.5672 85.41 87.9439 85.3267 88.2172 85.16C88.4972 84.9933 88.6372 84.77 88.6372 84.49C88.6372 84.2833 88.5705 84.1167 88.4372 83.99C88.3039 83.8567 88.1205 83.7467 87.8872 83.66C87.6539 83.5733 87.3805 83.4967 87.0672 83.43C86.7805 83.37 86.4872 83.2833 86.1872 83.17C85.8872 83.05 85.6072 82.8933 85.3472 82.7C85.0872 82.5067 84.8772 82.2667 84.7172 81.98C84.5572 81.6867 84.4772 81.3367 84.4772 80.93C84.4772 80.41 84.6439 79.9767 84.9772 79.63C85.3105 79.2767 85.7439 79.01 86.2772 78.83C86.8105 78.6433 87.3805 78.55 87.9872 78.55ZM94.8256 83.46C94.8456 83.8333 94.9456 84.1667 95.1256 84.46C95.3056 84.7533 95.5656 84.9833 95.9056 85.15C96.2523 85.3167 96.6656 85.4 97.1456 85.4C97.579 85.4 97.959 85.3467 98.2856 85.24C98.619 85.1333 98.899 85.0033 99.1256 84.85C99.359 84.69 99.5323 84.5367 99.6456 84.39L100.696 85.95C100.509 86.1833 100.259 86.4 99.9456 86.6C99.639 86.7933 99.2456 86.9467 98.7656 87.06C98.2923 87.18 97.699 87.24 96.9856 87.24C96.0856 87.24 95.2956 87.0633 94.6156 86.71C93.9356 86.3567 93.4056 85.8467 93.0256 85.18C92.6456 84.5133 92.4556 83.72 92.4556 82.8C92.4556 82 92.6256 81.28 92.9656 80.64C93.3056 79.9933 93.799 79.4833 94.4456 79.11C95.099 78.7367 95.8823 78.55 96.7956 78.55C97.6556 78.55 98.399 78.7167 99.0256 79.05C99.659 79.3767 100.149 79.8567 100.496 80.49C100.842 81.1233 101.016 81.8967 101.016 82.81C101.016 82.8633 101.012 82.9733 101.006 83.14C101.006 83.3 100.999 83.4067 100.986 83.46H94.8256ZM98.6356 81.89C98.629 81.6767 98.5623 81.4467 98.4356 81.2C98.3156 80.9533 98.1256 80.7433 97.8656 80.57C97.6056 80.3967 97.259 80.31 96.8256 80.31C96.3923 80.31 96.0356 80.3933 95.7556 80.56C95.4823 80.7267 95.2756 80.9333 95.1356 81.18C94.9956 81.42 94.9156 81.6567 94.8956 81.89H98.6356ZM105.091 87H102.551V78.79H105.091V80.12H105.041C105.087 79.96 105.214 79.7567 105.421 79.51C105.634 79.2633 105.927 79.0433 106.301 78.85C106.674 78.65 107.124 78.55 107.651 78.55C108.031 78.55 108.374 78.6067 108.681 78.72C108.994 78.8267 109.217 78.9333 109.351 79.04L108.351 81.12C108.264 81.0133 108.101 80.9033 107.861 80.79C107.627 80.6767 107.334 80.62 106.981 80.62C106.561 80.62 106.211 80.7367 105.931 80.97C105.651 81.1967 105.441 81.4767 105.301 81.81C105.161 82.1367 105.091 82.4433 105.091 82.73V87ZM128.735 73.8V87H126.245V78.55L126.365 76.63L125.915 78.81L123.325 86.06H120.865L118.285 78.81L117.845 76.63L117.955 78.55V87H115.455V73.8H118.915L121.935 83.21L122.095 84.11L122.255 83.21L125.285 73.8H128.735ZM135.286 87.24C134.413 87.24 133.633 87.0533 132.946 86.68C132.266 86.3067 131.733 85.7967 131.346 85.15C130.959 84.4967 130.766 83.7533 130.766 82.92C130.766 82.0867 130.959 81.3433 131.346 80.69C131.733 80.03 132.266 79.51 132.946 79.13C133.633 78.7433 134.413 78.55 135.286 78.55C136.166 78.55 136.943 78.7433 137.616 79.13C138.289 79.51 138.816 80.03 139.196 80.69C139.576 81.3433 139.766 82.0867 139.766 82.92C139.766 83.7533 139.576 84.4967 139.196 85.15C138.816 85.7967 138.289 86.3067 137.616 86.68C136.943 87.0533 136.166 87.24 135.286 87.24ZM135.286 85.13C135.706 85.13 136.069 85.0367 136.376 84.85C136.689 84.6567 136.929 84.3933 137.096 84.06C137.269 83.72 137.356 83.3367 137.356 82.91C137.356 82.4833 137.269 82.1 137.096 81.76C136.929 81.42 136.689 81.1533 136.376 80.96C136.069 80.76 135.706 80.66 135.286 80.66C134.866 80.66 134.499 80.76 134.186 80.96C133.879 81.1533 133.639 81.42 133.466 81.76C133.293 82.1 133.206 82.4833 133.206 82.91C133.206 83.3367 133.293 83.72 133.466 84.06C133.639 84.3933 133.879 84.6567 134.186 84.85C134.499 85.0367 134.866 85.13 135.286 85.13ZM146.711 78.55C147.271 78.55 147.817 78.6667 148.351 78.9C148.884 79.1267 149.321 79.49 149.661 79.99C150.007 80.49 150.181 81.1433 150.181 81.95V87H147.631V82.39C147.631 81.7167 147.471 81.2167 147.151 80.89C146.837 80.5633 146.424 80.4 145.911 80.4C145.577 80.4 145.257 80.4933 144.951 80.68C144.651 80.86 144.404 81.1133 144.211 81.44C144.024 81.76 143.931 82.1267 143.931 82.54V87H141.391V78.79H143.931V80.1C144.004 79.8733 144.171 79.64 144.431 79.4C144.691 79.16 145.021 78.96 145.421 78.8C145.821 78.6333 146.251 78.55 146.711 78.55ZM151.454 78.79H152.934V75.42H155.454V78.79H157.394V80.9H155.454V83.87C155.454 84.2633 155.518 84.57 155.644 84.79C155.771 85.0033 155.971 85.11 156.244 85.11C156.451 85.11 156.621 85.07 156.754 84.99C156.888 84.9033 156.968 84.8433 156.994 84.81L157.894 86.63C157.854 86.67 157.724 86.74 157.504 86.84C157.291 86.94 157.014 87.03 156.674 87.11C156.341 87.1967 155.964 87.24 155.544 87.24C154.791 87.24 154.168 87.0233 153.674 86.59C153.181 86.15 152.934 85.47 152.934 84.55V80.9H151.454V78.79ZM164.476 78.55C165.036 78.55 165.583 78.6667 166.116 78.9C166.649 79.1267 167.086 79.49 167.426 79.99C167.773 80.49 167.946 81.1433 167.946 81.95V87H165.396V82.39C165.396 81.7167 165.243 81.2167 164.936 80.89C164.636 80.5633 164.233 80.4 163.726 80.4C163.386 80.4 163.059 80.4933 162.746 80.68C162.439 80.86 162.186 81.1133 161.986 81.44C161.793 81.76 161.696 82.1267 161.696 82.54V87H159.146V73.24H161.696V80.1C161.763 79.8733 161.926 79.64 162.186 79.4C162.446 79.16 162.776 78.96 163.176 78.8C163.576 78.6333 164.009 78.55 164.476 78.55ZM172.517 87H169.967V73.24H172.517V87ZM178.534 84.77L180.964 78.79H183.474L177.864 91.16H175.314L177.204 87L173.794 78.79H176.334L178.534 84.77ZM194.293 73.56C195.086 73.56 195.776 73.65 196.363 73.83C196.956 74.0033 197.426 74.19 197.773 74.39C198.126 74.59 198.339 74.72 198.413 74.78L197.193 76.81C197.086 76.7233 196.903 76.6033 196.643 76.45C196.389 76.29 196.083 76.15 195.723 76.03C195.363 75.9033 194.973 75.84 194.553 75.84C193.946 75.84 193.459 75.9567 193.093 76.19C192.733 76.4167 192.553 76.7467 192.553 77.18C192.553 77.4733 192.649 77.7367 192.843 77.97C193.036 78.1967 193.319 78.41 193.693 78.61C194.073 78.81 194.536 79.02 195.083 79.24C195.563 79.4267 196.019 79.6433 196.453 79.89C196.893 80.1367 197.283 80.4267 197.623 80.76C197.969 81.0933 198.243 81.48 198.443 81.92C198.649 82.36 198.753 82.8633 198.753 83.43C198.753 84.0633 198.623 84.6167 198.363 85.09C198.109 85.5633 197.756 85.96 197.303 86.28C196.856 86.6 196.343 86.84 195.763 87C195.183 87.16 194.573 87.24 193.933 87.24C193.066 87.24 192.286 87.14 191.593 86.94C190.906 86.7333 190.349 86.5133 189.923 86.28C189.496 86.0467 189.246 85.8967 189.173 85.83L190.453 83.72C190.533 83.78 190.683 83.8767 190.903 84.01C191.129 84.1433 191.403 84.28 191.723 84.42C192.049 84.56 192.403 84.68 192.783 84.78C193.169 84.88 193.563 84.93 193.963 84.93C194.683 84.93 195.226 84.78 195.593 84.48C195.959 84.18 196.143 83.79 196.143 83.31C196.143 82.95 196.026 82.6333 195.793 82.36C195.559 82.0867 195.229 81.8367 194.803 81.61C194.383 81.3767 193.879 81.14 193.293 80.9C192.706 80.6533 192.159 80.3667 191.653 80.04C191.153 79.7067 190.749 79.3 190.443 78.82C190.136 78.3333 189.983 77.7367 189.983 77.03C189.983 76.33 190.179 75.72 190.573 75.2C190.973 74.68 191.499 74.2767 192.153 73.99C192.813 73.7033 193.526 73.56 194.293 73.56ZM199.99 78.79H201.47V75.42H203.99V78.79H205.93V80.9H203.99V83.87C203.99 84.2633 204.053 84.57 204.18 84.79C204.306 85.0033 204.506 85.11 204.78 85.11C204.986 85.11 205.156 85.07 205.29 84.99C205.423 84.9033 205.503 84.8433 205.53 84.81L206.43 86.63C206.39 86.67 206.26 86.74 206.04 86.84C205.826 86.94 205.55 87.03 205.21 87.11C204.876 87.1967 204.5 87.24 204.08 87.24C203.326 87.24 202.703 87.0233 202.21 86.59C201.716 86.15 201.47 85.47 201.47 84.55V80.9H199.99V78.79ZM214.161 87V85.57C214.101 85.7167 213.948 85.9233 213.701 86.19C213.455 86.4567 213.121 86.7 212.701 86.92C212.288 87.1333 211.801 87.24 211.241 87.24C210.455 87.24 209.758 87.0533 209.151 86.68C208.545 86.3 208.068 85.7833 207.721 85.13C207.381 84.47 207.211 83.7267 207.211 82.9C207.211 82.0733 207.381 81.3333 207.721 80.68C208.068 80.02 208.545 79.5 209.151 79.12C209.758 78.74 210.455 78.55 211.241 78.55C211.788 78.55 212.261 78.6433 212.661 78.83C213.068 79.01 213.395 79.2233 213.641 79.47C213.895 79.71 214.058 79.9267 214.131 80.12V78.79H216.651V87H214.161ZM209.701 82.9C209.701 83.36 209.805 83.7667 210.011 84.12C210.218 84.4667 210.491 84.7367 210.831 84.93C211.171 85.1233 211.541 85.22 211.941 85.22C212.361 85.22 212.735 85.1233 213.061 84.93C213.388 84.73 213.645 84.4567 213.831 84.11C214.025 83.7567 214.121 83.3533 214.121 82.9C214.121 82.4467 214.025 82.0467 213.831 81.7C213.645 81.3467 213.388 81.07 213.061 80.87C212.735 80.67 212.361 80.57 211.941 80.57C211.541 80.57 211.171 80.67 210.831 80.87C210.491 81.0633 210.218 81.3367 210.011 81.69C209.805 82.0367 209.701 82.44 209.701 82.9ZM218.036 78.79H219.516V75.42H222.036V78.79H223.976V80.9H222.036V83.87C222.036 84.2633 222.1 84.57 222.226 84.79C222.353 85.0033 222.553 85.11 222.826 85.11C223.033 85.11 223.203 85.07 223.336 84.99C223.47 84.9033 223.55 84.8433 223.576 84.81L224.476 86.63C224.436 86.67 224.306 86.74 224.086 86.84C223.873 86.94 223.596 87.03 223.256 87.11C222.923 87.1967 222.546 87.24 222.126 87.24C221.373 87.24 220.75 87.0233 220.256 86.59C219.763 86.15 219.516 85.47 219.516 84.55V80.9H218.036V78.79ZM229.198 78.55C229.691 78.55 230.148 78.5967 230.568 78.69C230.988 78.7767 231.341 78.8767 231.628 78.99C231.921 79.1033 232.115 79.2 232.208 79.28L231.338 80.81C231.205 80.7033 230.965 80.5767 230.618 80.43C230.278 80.2833 229.898 80.21 229.478 80.21C229.098 80.21 228.778 80.2767 228.518 80.41C228.258 80.5367 228.128 80.73 228.128 80.99C228.128 81.25 228.268 81.4567 228.548 81.61C228.828 81.7633 229.218 81.8967 229.718 82.01C230.138 82.0967 230.551 82.23 230.958 82.41C231.365 82.5833 231.701 82.8367 231.968 83.17C232.235 83.4967 232.368 83.9333 232.368 84.48C232.368 85.02 232.251 85.47 232.018 85.83C231.791 86.1833 231.488 86.4633 231.108 86.67C230.728 86.8767 230.311 87.0233 229.858 87.11C229.405 87.1967 228.955 87.24 228.508 87.24C227.928 87.24 227.418 87.1833 226.978 87.07C226.538 86.9633 226.175 86.84 225.888 86.7C225.608 86.5533 225.408 86.43 225.288 86.33L226.158 84.63C226.331 84.7833 226.615 84.9533 227.008 85.14C227.408 85.32 227.838 85.41 228.298 85.41C228.778 85.41 229.155 85.3267 229.428 85.16C229.708 84.9933 229.848 84.77 229.848 84.49C229.848 84.2833 229.781 84.1167 229.648 83.99C229.515 83.8567 229.331 83.7467 229.098 83.66C228.865 83.5733 228.591 83.4967 228.278 83.43C227.991 83.37 227.698 83.2833 227.398 83.17C227.098 83.05 226.818 82.8933 226.558 82.7C226.298 82.5067 226.088 82.2667 225.928 81.98C225.768 81.6867 225.688 81.3367 225.688 80.93C225.688 80.41 225.855 79.9767 226.188 79.63C226.521 79.2767 226.955 79.01 227.488 78.83C228.021 78.6433 228.591 78.55 229.198 78.55Z" fill="#181A20"/>
<path d="M188 151V217" stroke="url(#paint1_linear_27_1228)" stroke-width="2" stroke-linecap="round"/>
<circle cx="188" cy="145" r="6.5" fill="white" stroke="#5183F4" stroke-width="3"/>
</g>
</g>
<g filter="url(#filter1_d_27_1228)">
<rect x="38" y="36" width="30" height="30" rx="4" fill="#5183F4"/>
<path d="M61 61L53 55.4444L45 61V43.2222C45 42.6329 45.2408 42.0676 45.6695 41.6509C46.0981 41.2341 46.6795 41 47.2857 41H58.7143C59.3205 41 59.9019 41.2341 60.3305 41.6509C60.7592 42.0676 61 42.6329 61 43.2222V61Z" stroke="white" stroke-width="2" stroke-linecap="round" stroke-linejoin="round"/>
<path d="M53 46.0833V51.9167" stroke="white" stroke-linecap="round" stroke-linejoin="round"/>
<path d="M56 49H50.1667" stroke="white" stroke-linecap="round" stroke-linejoin="round"/>
</g>
<defs>
<filter id="filter0_d_27_1228" x="0" y="0" width="340" height="274" filterUnits="userSpaceOnUse" color-interpolation-filters="sRGB">
<feFlood flood-opacity="0" result="BackgroundImageFix"/>
<feColorMatrix in="SourceAlpha" type="matrix" values="0 0 0 0 0 0 0 0 0 0 0 0 0 0 0 0 0 0 127 0" result="hardAlpha"/>
<feOffset dy="4"/>
<feGaussianBlur stdDeviation="26.5"/>
<feComposite in2="hardAlpha" operator="out"/>
<feColorMatrix type="matrix" values="0 0 0 0 0 0 0 0 0 0 0 0 0 0 0 0 0 0 0.1 0"/>
<feBlend mode="normal" in2="BackgroundImageFix" result="effect1_dropShadow_27_1228"/>
<feBlend mode="normal" in="SourceGraphic" in2="effect1_dropShadow_27_1228" result="shape"/>
</filter>
<filter id="filter1_d_27_1228" x="28" y="30" width="50" height="50" filterUnits="userSpaceOnUse" color-interpolation-filters="sRGB">
<feFlood flood-opacity="0" result="BackgroundImageFix"/>
<feColorMatrix in="SourceAlpha" type="matrix" values="0 0 0 0 0 0 0 0 0 0 0 0 0 0 0 0 0 0 127 0" result="hardAlpha"/>
<feOffset dy="4"/>
<feGaussianBlur stdDeviation="5"/>
<feComposite in2="hardAlpha" operator="out"/>
<feColorMatrix type="matrix" values="0 0 0 0 0 0 0 0 0 0.458824 0 0 0 0 0.882353 0 0 0 0.12 0"/>
<feBlend mode="normal" in2="BackgroundImageFix" result="effect1_dropShadow_27_1228"/>
<feBlend mode="normal" in="SourceGraphic" in2="effect1_dropShadow_27_1228" result="shape"/>
</filter>
<linearGradient id="paint0_linear_27_1228" x1="170" y1="128" x2="170" y2="234" gradientUnits="userSpaceOnUse">
<stop stop-color="#2869FE"/>
<stop offset="1" stop-color="white" stop-opacity="0"/>
</linearGradient>
<linearGradient id="paint1_linear_27_1228" x1="188.5" y1="151" x2="188.5" y2="217" gradientUnits="userSpaceOnUse">
<stop stop-color="#2869FE"/>
<stop offset="1" stop-color="#2869FE" stop-opacity="0"/>
</linearGradient>
<clipPath id="clip0_27_1228">
<rect x="53" y="49" width="234" height="168" rx="20" fill="white"/>
</clipPath>
</defs>
</svg>
