<svg width="26" height="20" viewBox="0 0 26 20" fill="none" xmlns="http://www.w3.org/2000/svg">
<path d="M25.4991 17.4801C25.416 17.6655 25.3109 17.8244 25.087 17.8789C24.7389 17.9638 24.4348 17.7338 24.4206 17.353C24.4035 16.9043 24.4206 16.4519 24.3854 16.0066C24.2529 14.2268 23.3817 12.8425 21.9228 11.793C20.793 10.9806 19.5057 10.5918 18.106 10.5372L18.0331 10.5339C17.5931 10.5121 17.3589 10.329 17.3555 10.0089C17.3521 9.68881 17.5912 9.50007 18.0248 9.47635C19.8543 9.37676 21.2271 7.92418 21.1509 6.16855C21.0834 4.62206 19.8166 3.32787 18.2253 3.18086C18.1118 3.17042 17.9984 3.16426 17.8855 3.15193C17.5618 3.11589 17.3403 2.88873 17.3565 2.61082C17.3595 2.54137 17.3767 2.47319 17.4072 2.4103C17.4378 2.34741 17.4809 2.29107 17.5342 2.24459C17.5875 2.19811 17.6499 2.16243 17.7176 2.13965C17.7853 2.11687 17.857 2.10744 17.9285 2.11193C18.2453 2.11697 18.5608 2.15304 18.8701 2.21958C21.2613 2.78866 22.6689 4.99339 22.1115 7.31241C21.8847 8.25567 21.3537 9.02725 20.5642 9.62669L20.3197 9.81069C20.7832 10.0122 21.2389 10.1782 21.6622 10.4016C23.434 11.3344 24.6612 12.7149 25.2366 14.6043C25.3574 15.0012 25.4126 15.4171 25.4982 15.8245L25.4991 17.4801Z" fill="#B1B1B1"/>
<path d="M13.0291 9.7864C13.6647 10.0377 14.3003 10.2421 14.8923 10.5281C17.2826 11.6819 18.9453 13.4608 19.7388 15.9586C19.9769 16.7088 20.0576 17.4852 20.0717 18.2677C20.0786 18.6537 20.0805 19.0407 20.0717 19.4262C20.0629 19.7378 19.9006 19.9374 19.6479 19.9868C19.3951 20.0361 19.1306 19.9251 19.0455 19.6984C19.0016 19.5637 18.9813 19.4228 18.9854 19.2816C18.9746 18.4469 19.0103 17.6113 18.8309 16.7852C18.6031 15.7086 18.1224 14.6974 17.4263 13.8302C16.0456 12.113 14.222 11.0697 12.0308 10.6969C9.09736 10.1971 6.43774 10.8416 4.17901 12.7665C2.74164 13.9915 1.87775 15.5498 1.65774 17.4045C1.57952 18.0685 1.61521 18.7424 1.59858 19.412C1.59027 19.7236 1.44311 19.9303 1.1928 19.9849C0.842254 20.0612 0.541091 19.8478 0.521535 19.4827C0.408599 17.3823 0.717096 15.3819 1.99117 13.6021C3.09414 12.0627 4.54715 10.954 6.32725 10.2431C6.72912 10.0823 7.14567 9.95854 7.58128 9.80679C5.89114 8.75588 4.92312 7.29997 4.8708 5.35418C4.83071 3.87361 5.38122 2.58748 6.46267 1.54084C6.98762 1.02947 7.61577 0.628742 8.30777 0.363754C8.99977 0.0987673 9.74073 -0.0247735 10.4842 0.000869262C11.2277 0.026512 11.9578 0.200786 12.6286 0.512776C13.2995 0.824767 13.8967 1.26775 14.3829 1.814C15.4932 3.05508 15.9175 4.50719 15.6398 6.12339C15.3622 7.73959 14.4396 8.93562 13.0291 9.7864ZM14.6332 5.25411C14.6317 4.7014 14.5179 4.1544 14.2984 3.64435C14.0788 3.1343 13.7579 2.6712 13.3538 2.2815C12.9497 1.8918 12.4705 1.58313 11.9434 1.37313C11.4163 1.16313 10.8518 1.05591 10.282 1.05759C7.88635 1.0666 5.93074 2.96924 5.94688 5.2783C5.96399 7.60206 7.92595 9.49332 10.305 9.48194C12.6967 9.46866 14.6464 7.56554 14.6332 5.25411Z" fill="#B1B1B1"/>
</svg>
