<svg width="60" height="60" viewBox="0 0 60 60" fill="none" xmlns="http://www.w3.org/2000/svg">
<path d="M24.103 46.3066C24.103 45.4223 24.0861 44.5369 24.103 43.6515C24.1315 42.4969 23.6509 41.6605 22.6727 41.0645C19.4498 39.1022 17.3139 36.2821 16.229 32.6576C13.8353 24.6167 19.1551 15.931 27.3513 14.4837C35.2316 13.0918 42.457 18.0455 44.0605 25.9352C45.2225 31.6583 42.5922 37.7475 37.583 40.9038C36.9492 41.304 36.3218 41.7052 36.0767 42.4628C35.9627 42.8142 35.9014 43.1808 35.895 43.5504C35.877 45.4266 35.9098 47.3038 35.877 49.1799C35.8337 51.6839 34.2809 53.8101 31.9284 54.6667C29.7016 55.4766 27.1516 54.7987 25.5523 52.9587C24.6436 51.9313 24.1302 50.61 24.1051 49.2342C24.0787 48.2615 24.1051 47.2867 24.1051 46.3141L24.103 46.3066ZM34.2249 46.5024C34.2249 45.4095 34.2038 44.3837 34.2249 43.3589C34.2619 41.8584 34.9073 40.6772 36.1453 39.8333C36.363 39.6843 36.5975 39.5598 36.813 39.4076C41.1979 36.3471 43.2112 32.1287 42.4972 26.8036C41.5623 19.8216 35.0816 15.0626 28.1171 16.0555C20.3509 17.1622 15.4135 25.3882 18.0427 32.8396C19.0896 35.8075 20.9678 38.0827 23.6414 39.7024C25.0738 40.5697 25.7541 41.869 25.7678 43.5408C25.7678 44.3922 25.7678 45.2435 25.7678 46.0895C25.7743 46.2275 25.788 46.3649 25.809 46.5014L34.2249 46.5024ZM25.7984 48.2253C25.6315 50.2025 26.221 51.7871 27.9428 52.7608C29.4904 53.6356 31.059 53.5291 32.4957 52.4788C33.9323 51.4285 34.3675 49.9652 34.1858 48.2221L25.7984 48.2253Z" fill="#5183F4"/>
<path d="M29.164 8.64904C29.164 7.76578 29.164 6.88145 29.164 5.99713C29.164 5.35863 29.4809 4.99894 30.0006 5C30.5203 5.00107 30.8309 5.35863 30.8319 6.00245C30.8376 7.78884 30.8376 9.57487 30.8319 11.3605C30.8319 11.999 30.5151 12.3598 29.9953 12.3587C29.4756 12.3577 29.1682 11.9959 29.164 11.3542C29.1598 10.4528 29.164 9.55145 29.164 8.64904Z" fill="#5183F4"/>
<path d="M13.6371 11.7893C13.7171 11.7257 13.8135 11.6868 13.9149 11.6772C14.0163 11.6675 14.1183 11.6876 14.2086 11.7351C14.3642 11.8066 14.5087 11.9005 14.6375 12.0139C15.9262 13.2909 17.2055 14.5771 18.4752 15.8725C18.8977 16.2982 18.9189 16.7707 18.5629 17.1346C18.2069 17.4986 17.7178 17.4645 17.3058 17.0548C16.0108 15.7594 14.7202 14.4597 13.4343 13.1557C13.165 12.8833 13.0118 12.5438 13.2231 12.198C13.337 12.039 13.4771 11.9008 13.6371 11.7893Z" fill="#5183F4"/>
<path d="M46.7595 12.1799C46.8209 12.2608 46.8581 12.3577 46.8665 12.4592C46.8749 12.5607 46.8543 12.6625 46.807 12.7525C46.7351 12.9101 46.6408 13.0564 46.5271 13.1866C45.2594 14.4849 43.9827 15.7733 42.6967 17.0517C42.2848 17.4625 41.782 17.4848 41.4397 17.1379C41.0805 16.7729 41.0996 16.3057 41.5221 15.8758C42.7897 14.5839 44.0795 13.3026 45.3513 12.0097C45.644 11.7138 45.9926 11.5712 46.3454 11.7649C46.5097 11.8737 46.6506 12.0149 46.7595 12.1799Z" fill="#5183F4"/>
<path d="M18.7175 40.474C18.7746 40.5548 18.8082 40.6502 18.8144 40.7493C18.8205 40.8485 18.799 40.9473 18.7523 41.0348C18.6846 41.1806 18.5968 41.316 18.4914 41.437C17.2104 42.746 15.921 44.0467 14.6231 45.3393C14.2164 45.7448 13.7019 45.7469 13.366 45.384C13.0301 45.0211 13.0555 44.5636 13.4526 44.1613C14.7372 42.8556 16.0322 41.5605 17.3189 40.2569C17.6136 39.96 17.9717 39.8386 18.3171 40.044C18.4783 40.1583 18.6145 40.3046 18.7175 40.474Z" fill="#5183F4"/>
<path d="M41.6846 40.06C41.7644 39.9955 41.8611 39.9557 41.9629 39.9455C42.0647 39.9353 42.1673 39.9551 42.2582 40.0025C42.414 40.0734 42.5588 40.1666 42.6881 40.2792C43.9768 41.5562 45.2561 42.8424 46.5258 44.1379C46.9483 44.5636 46.9684 45.0403 46.6177 45.4C46.267 45.7597 45.7726 45.7341 45.3606 45.3234C44.0656 44.0293 42.7751 42.7296 41.4891 41.4243C41.2208 41.154 41.0592 40.8177 41.2779 40.4718C41.3901 40.313 41.5275 40.1739 41.6846 40.06Z" fill="#5183F4"/>
<path d="M10.1258 27.8361C11.0385 27.8361 11.9501 27.8287 12.8628 27.8361C13.4617 27.8425 13.823 28.1607 13.8293 28.6534C13.8357 29.1461 13.4755 29.4909 12.8786 29.4952C11.0723 29.5072 9.26559 29.5072 7.45853 29.4952C6.85958 29.4952 6.50782 29.1642 6.4962 28.6715C6.48881 28.1628 6.86169 27.8404 7.49127 27.834C8.37226 27.8297 9.24904 27.8361 10.1258 27.8361Z" fill="#5183F4"/>
<path d="M49.8735 27.8358C50.7503 27.8358 51.6281 27.8295 52.5049 27.8358C53.1334 27.8422 53.5063 28.1657 53.4989 28.6755C53.4926 29.1639 53.1324 29.4928 52.5355 29.497C50.7278 29.5062 48.9207 29.5062 47.1144 29.497C46.5249 29.497 46.1637 29.1448 46.17 28.6542C46.1763 28.1636 46.5408 27.8444 47.1376 27.838C48.0492 27.8284 48.9619 27.8358 49.8735 27.8358Z" fill="#5183F4"/>
<path d="M40.9619 28.8024C40.8879 31.8289 39.7534 34.5351 37.4685 36.7379C37.1368 37.0571 36.7809 37.237 36.3361 36.9858C35.8006 36.6836 35.7646 36.0483 36.2791 35.5609C37.2481 34.6578 38.0172 33.5591 38.5365 32.3365C39.2712 30.6105 39.4718 28.7014 39.112 26.8588C38.7522 25.0161 37.8488 23.3257 36.5199 22.0087C36.4206 21.9087 36.3087 21.8161 36.2178 21.714C35.8375 21.3085 35.8143 20.8403 36.1523 20.487C36.4904 20.1337 36.9826 20.1103 37.3671 20.5157C37.9587 21.1393 38.5555 21.7735 39.0457 22.477C40.3302 24.3233 40.9238 26.4059 40.9619 28.8024Z" fill="#5183F4"/>
</svg>
