<svg width="30" height="30" viewBox="0 0 30 30" fill="none" xmlns="http://www.w3.org/2000/svg">
<path d="M10.3177 26.2491C8.57585 26.2491 6.91184 25.5675 5.67156 24.3273C4.26911 22.9248 3.581 20.9805 3.78537 18.9941C4.0563 16.3532 5.96499 14.093 8.5346 13.3721C9.75519 13.0299 10.9814 13.0402 12.1842 13.4021L21.1502 4.43622C21.5936 3.99374 22.1814 3.75 22.8076 3.75H24.8438C25.6191 3.75 26.25 4.38091 26.25 5.15619V7.19142C26.25 7.81764 26.0063 8.40637 25.5638 8.84885L24.1004 10.3122H21.5626V13.1246H18.7502V15.6623L16.5978 17.8147C16.9597 19.0175 16.969 20.2437 16.6269 21.4643C15.9059 24.0338 13.6476 25.9425 11.0048 26.2144C10.7761 26.2378 10.5464 26.25 10.3186 26.25L10.3177 26.2491ZM10.3139 14.0611C9.80581 14.0611 9.29677 14.1324 8.78772 14.2749C6.5856 14.8927 4.94971 16.8285 4.71722 19.0906C4.54191 20.7949 5.13158 22.4617 6.33436 23.6645C7.53713 24.8672 9.20302 25.4569 10.9092 25.2816C13.1713 25.0491 15.1072 23.4132 15.7241 21.2111C16.0409 20.0824 16.0062 18.9491 15.62 17.84L15.5235 17.5625L17.8118 15.2742V12.1871H20.6242V9.37477H23.7113L24.9 8.18607C25.1653 7.92076 25.3116 7.56734 25.3116 7.19142V5.15619C25.3116 4.89745 25.1007 4.68746 24.8429 4.68746H22.8067C22.4364 4.68746 22.0745 4.83745 21.812 5.09901L12.4354 14.4746L12.1579 14.378C11.5495 14.1661 10.9327 14.0602 10.313 14.0602L10.3139 14.0611ZM8.4371 20.6243C8.4371 21.1418 8.85709 21.5618 9.37458 21.5618C9.89206 21.5618 10.312 21.1418 10.312 20.6243C10.312 20.1068 9.89206 19.6868 9.37458 19.6868C8.85709 19.6868 8.4371 20.1068 8.4371 20.6243Z" fill="#B1B1B1"/>
</svg>
