<svg width="145" height="50" viewBox="0 0 145 50" fill="none" xmlns="http://www.w3.org/2000/svg">
<g clip-path="url(#clip0_7016_1997)">
<path d="M25.7598 0.0290536L25.713 0L25.6955 0.0261496H25.4352C18.8723 -0.130754 12.7306 2.00197 8.14772 6.01464C3.30454 10.254 0.505673 16.2018 0.0582048 23.213C-0.371715 29.9134 1.63165 36.1256 5.69688 40.7078C10.2973 45.8914 17.2082 48.8029 26.2307 49.3579L27.2718 49.4218C31.7992 49.7123 36.7593 50.0029 42.7285 50.0029C45.1384 50.0029 47.715 49.9535 50.4934 49.8286C51.6047 49.7792 51.7334 49.0789 52.0376 44.7553C52.2248 42.0764 52.4499 37.1513 52.4412 28.8993C52.4207 9.53917 39.0815 0.479425 25.7598 0.0290536ZM26.8741 2.32159C31.2513 2.60611 35.4841 3.99086 39.1751 6.34588L28.2165 23.4658L30.1 24.6804L34.5571 17.7069L50.1687 28.1817C50.1687 28.417 50.1834 28.6495 50.1834 28.8877C50.1834 33.5367 50.1219 37.1106 50.0225 39.8681L16.3104 18.4798L26.8741 2.32159ZM50.0167 25.3952L35.7737 15.8415L41.0059 7.67085C41.6503 8.18469 42.2664 8.73271 42.8513 9.31252C46.9312 13.3659 49.3732 18.8808 50.0167 25.3952ZM2.29847 23.3612C3.08812 11.021 12.0462 2.49593 24.2332 2.26638L3.84267 33.4612C2.57787 30.2445 2.05036 26.7883 2.29847 23.3438V23.3612ZM27.4122 47.1874L26.3711 47.1234C23.1431 46.9602 19.9524 46.362 16.8865 45.3452L26.6577 30.079L24.7742 28.8645L14.7603 44.5113C11.9436 43.2998 9.42512 41.4955 7.37854 39.223C6.4571 38.181 5.65021 37.0443 4.97158 35.8322L15.0879 20.3539L49.926 42.457C49.7827 45.2522 49.6131 46.8358 49.5048 47.6377C40.4063 47.9922 33.513 47.5622 27.4122 47.1874Z" fill="#231916"/>
<path d="M144.819 43.2792H136.086V38.6593H144.819V43.2792ZM136.086 37.4099H144.819V34.9604H136.086V37.4099ZM134.828 34.9604H132.764V46.9549H134.843L134.828 34.9604ZM136.086 44.5287V46.9549H144.819V44.5287H136.086Z" fill="#D80E19"/>
<path d="M64.8945 23.0707V9.29224H66.7634L75.198 18.474V9.29224H77.8974V23.0707H76.0257L67.591 13.8657V23.0707H64.8945Z" fill="#231916"/>
<path d="M82.7816 8.83301C83.0819 8.83244 83.3756 8.92039 83.6256 9.08575C83.8756 9.2511 84.0706 9.48642 84.186 9.76192C84.3013 10.0374 84.3318 10.3407 84.2735 10.6334C84.2153 10.9262 84.071 11.1951 83.8588 11.4063C83.6467 11.6175 83.3762 11.7614 83.0817 11.8199C82.7872 11.8783 82.4818 11.8486 82.2043 11.7345C81.9268 11.6205 81.6895 11.4272 81.5226 11.1791C81.3557 10.9311 81.2666 10.6394 81.2666 10.341C81.2689 9.94228 81.4291 9.56048 81.7127 9.27824C81.9962 8.99601 82.3802 8.83606 82.7816 8.83301ZM84.0479 14.1154V23.0706H81.5152V14.1183L84.0479 14.1154Z" fill="#231916"/>
<path d="M87.707 8.01074H90.2398V15.2748C90.5458 14.8219 90.9607 14.4519 91.4468 14.1983C91.9329 13.9446 92.475 13.8153 93.024 13.822C93.8107 13.822 94.9747 14.0486 95.6825 14.9145C96.3054 15.6787 96.3873 16.5678 96.3873 17.4337V23.0706H93.8663V18.1862C93.8663 17.6894 93.8458 16.9049 93.3866 16.4429C93.2319 16.2936 93.0487 16.1767 92.8478 16.0988C92.6469 16.021 92.4324 15.9838 92.2168 15.9896C91.9102 15.9707 91.6041 16.0334 91.33 16.1713C91.056 16.3092 90.824 16.5173 90.658 16.7741C90.3547 17.3032 90.2172 17.9103 90.2632 18.5175V23.0706H87.7304L87.707 8.01074Z" fill="#231916"/>
<path d="M107.545 15.0889C108.023 15.5391 108.405 16.0816 108.665 16.683C108.926 17.2845 109.06 17.9325 109.06 18.5873C109.06 19.2421 108.926 19.8901 108.665 20.4916C108.405 21.0931 108.023 21.6355 107.545 22.0857C106.776 22.7859 105.612 23.3438 103.909 23.3438C102.207 23.3438 101.043 22.7859 100.274 22.0857C99.7954 21.6355 99.4142 21.0931 99.1537 20.4916C98.8932 19.8901 98.7588 19.2421 98.7588 18.5873C98.7588 17.9325 98.8932 17.2845 99.1537 16.683C99.4142 16.0816 99.7954 15.5391 100.274 15.0889C101.043 14.3887 102.207 13.8308 103.909 13.8308C105.612 13.8308 106.776 14.3887 107.545 15.0889ZM106.442 18.596C106.442 18.0985 106.292 17.6123 106.014 17.1989C105.735 16.7854 105.339 16.4634 104.877 16.2734C104.414 16.0834 103.905 16.034 103.413 16.1314C102.922 16.2288 102.471 16.4687 102.117 16.8207C101.764 17.1727 101.523 17.6211 101.425 18.1091C101.328 18.5971 101.378 19.1029 101.57 19.5625C101.762 20.0222 102.086 20.415 102.503 20.6913C102.919 20.9677 103.409 21.1152 103.909 21.1152C104.243 21.1183 104.574 21.0553 104.883 20.9297C105.192 20.8042 105.472 20.6187 105.708 20.3841C105.944 20.1495 106.131 19.8706 106.257 19.5635C106.383 19.2565 106.446 18.9276 106.442 18.596Z" fill="#231916"/>
<path d="M111.432 14.1184H113.964V15.2807C114.27 14.8278 114.685 14.4578 115.171 14.2042C115.658 13.9505 116.2 13.8212 116.749 13.8279C117.535 13.8279 118.699 14.0545 119.407 14.9204C120.03 15.6846 120.112 16.5737 120.112 17.4396V23.0707H117.579V18.1863C117.579 17.6895 117.559 16.9049 117.1 16.4429C116.945 16.2937 116.762 16.1767 116.561 16.0989C116.36 16.0211 116.145 15.9839 115.93 15.9897C115.623 15.9707 115.317 16.0335 115.043 16.1714C114.769 16.3093 114.537 16.5174 114.371 16.7742C114.068 17.3033 113.93 17.9103 113.976 18.5176V23.0707H111.443L111.432 14.1184Z" fill="#231916"/>
<path d="M129.795 14.1184H132.328V22.6406C132.328 24.0034 132.202 25.4271 131.082 26.5429C130.459 27.1618 129.38 27.801 127.529 27.801C125.774 27.801 124.747 27.2838 124.165 26.7695C123.41 26.0559 122.899 25.1251 122.703 24.108H125.452C125.55 24.5181 125.766 24.8908 126.075 25.1801C126.511 25.5218 127.059 25.6905 127.613 25.6538C128.179 25.678 128.731 25.4784 129.149 25.0988C129.734 24.5409 129.795 23.8377 129.795 23.1171V21.859C129.505 22.3246 129.097 22.7066 128.612 22.967C128.127 23.2275 127.582 23.3574 127.031 23.3438C126.456 23.3604 125.884 23.2611 125.349 23.0518C124.813 22.8426 124.326 22.5278 123.917 22.1263C123.45 21.6602 123.083 21.1057 122.837 20.4957C122.591 19.8857 122.471 19.2327 122.484 18.5757C122.455 17.2568 122.955 15.9807 123.873 15.0279C124.708 14.2424 125.82 13.8127 126.97 13.8308C127.528 13.8042 128.083 13.9245 128.579 14.1796C129.075 14.4348 129.495 14.8156 129.795 15.2836V14.1184ZM125.908 16.6783C125.643 16.9173 125.434 17.2109 125.294 17.5386C125.155 17.8662 125.089 18.2201 125.101 18.5757C125.086 19.2204 125.324 19.8457 125.765 20.319C125.998 20.5693 126.281 20.7684 126.595 20.9035C126.91 21.0386 127.25 21.1068 127.593 21.1035C128.211 21.1068 128.808 20.8869 129.275 20.4847C129.535 20.2367 129.741 19.9383 129.88 19.6079C130.02 19.2775 130.089 18.9222 130.085 18.564C130.09 17.8942 129.828 17.2496 129.356 16.7713C129.133 16.5334 128.86 16.3458 128.558 16.221C128.255 16.0962 127.929 16.0371 127.602 16.0478C126.977 16.0361 126.371 16.2616 125.908 16.6783Z" fill="#231916"/>
<path d="M143.482 15.0889C143.961 15.5387 144.343 16.081 144.604 16.6825C144.865 17.2841 145 17.9323 145 18.5873C145 19.2424 144.865 19.8905 144.604 20.4921C144.343 21.0937 143.961 21.6359 143.482 22.0857C142.716 22.7859 141.552 23.3438 139.85 23.3438C138.147 23.3438 136.983 22.7859 136.214 22.0857C135.735 21.6359 135.353 21.0937 135.092 20.4921C134.831 19.8905 134.696 19.2424 134.696 18.5873C134.696 17.9323 134.831 17.2841 135.092 16.6825C135.353 16.081 135.735 15.5387 136.214 15.0889C136.983 14.3887 138.144 13.8308 139.85 13.8308C141.555 13.8308 142.707 14.3887 143.482 15.0889ZM142.382 18.596C142.382 18.0977 142.233 17.6105 141.955 17.1962C141.676 16.7818 141.28 16.4589 140.816 16.2683C140.353 16.0778 139.843 16.028 139.351 16.1255C138.859 16.2229 138.407 16.4631 138.053 16.8157C137.698 17.1683 137.457 17.6175 137.359 18.1063C137.262 18.5952 137.312 19.1018 137.505 19.5621C137.697 20.0224 138.023 20.4156 138.44 20.6921C138.857 20.9685 139.348 21.1158 139.85 21.1152C140.183 21.1183 140.514 21.0553 140.823 20.9297C141.132 20.8042 141.413 20.6187 141.648 20.3841C141.884 20.1495 142.071 19.8706 142.197 19.5635C142.323 19.2565 142.386 18.9276 142.382 18.596Z" fill="#231916"/>
<path d="M70.7614 35.4167V46.8706H68.062V35.4167H64.9561V33.1067H73.8879V35.4167H70.7614Z" fill="#231916"/>
<path d="M81.29 37.9358H83.8227V46.8706H81.29V45.7083C80.9917 46.164 80.5813 46.5366 80.0977 46.7908C79.6141 47.045 79.0732 47.1725 78.5262 47.1611C75.7654 47.1611 73.9375 45.0168 73.9375 42.3959C73.9375 39.7751 75.7449 37.6481 78.4034 37.6481C78.9702 37.6198 79.5346 37.7389 80.0409 37.9937C80.5471 38.2485 80.9777 38.6302 81.29 39.1009V37.9358ZM76.5492 42.393C76.5578 42.8807 76.7113 43.355 76.9903 43.7563C77.2693 44.1576 77.6614 44.4682 78.1174 44.6489C78.5734 44.8296 79.073 44.8724 79.5534 44.772C80.0339 44.6716 80.4737 44.4325 80.8178 44.0846C81.162 43.7367 81.395 43.2956 81.4876 42.8166C81.5802 42.3376 81.5284 41.8421 81.3386 41.3923C81.1488 40.9425 80.8294 40.5584 80.4207 40.2882C80.0119 40.0181 79.5319 39.8739 79.041 39.8738C78.7089 39.8698 78.3794 39.9325 78.0724 40.0582C77.7653 40.1839 77.487 40.37 77.2542 40.6054C77.0215 40.8407 76.839 41.1204 76.7178 41.4276C76.5967 41.7348 76.5393 42.0632 76.5492 42.393Z" fill="#231916"/>
<path d="M89.5933 31.8281V46.8705H87.0605V31.8281H89.5933Z" fill="#231916"/>
<path d="M95.5767 31.8281V41.1959L98.9429 37.9357H102.224L98.007 41.8554L102.555 46.8705H99.1915L95.8457 43.0525L95.5767 43.2995V46.8705H93.0439V31.8281H95.5767Z" fill="#231916"/>
<path d="M112.715 44.3748C112.446 45.0344 111.428 47.1584 108.29 47.1584C106.827 47.1584 105.736 46.7458 104.842 45.9003C103.847 44.9705 103.432 43.8169 103.432 42.4135C103.408 41.7668 103.518 41.1221 103.753 40.5187C103.988 39.9152 104.345 39.3657 104.801 38.9035C105.252 38.4769 105.785 38.1455 106.369 37.9293C106.952 37.713 107.574 37.6165 108.196 37.6454C110.024 37.6454 111.083 38.3689 111.706 39.0982C112.662 40.2314 112.785 41.6348 112.785 42.6053V42.829H106.058C106.046 43.3635 106.199 43.8888 106.497 44.3341C106.706 44.6104 106.979 44.8318 107.294 44.9792C107.608 45.1266 107.954 45.1954 108.301 45.1797C108.725 45.1947 109.144 45.0944 109.514 44.8895C109.885 44.6846 110.191 44.3831 110.401 44.0174L112.715 44.3748ZM110.375 41.2164C110.291 40.7156 110.031 40.2605 109.641 39.9323C109.251 39.604 108.757 39.4239 108.246 39.4239C107.735 39.4239 107.24 39.604 106.85 39.9323C106.46 40.2605 106.2 40.7156 106.117 41.2164H110.375Z" fill="#231916"/>
<path d="M115.146 37.9357H117.681V39.2752C117.932 38.7677 118.32 38.3393 118.801 38.0374C119.253 37.7679 119.772 37.6318 120.299 37.6452C120.668 37.6505 121.033 37.7203 121.378 37.8515L121.047 40.205C120.7 39.9682 120.284 39.8518 119.863 39.8738C119.545 39.8581 119.228 39.9152 118.936 40.0406C118.644 40.1661 118.385 40.3565 118.178 40.5973C117.702 41.1959 117.681 41.96 117.681 42.5789V46.8705H115.146V37.9357Z" fill="#231916"/>
<path d="M127.736 40.06C127.345 39.6787 126.821 39.464 126.273 39.4614C125.671 39.4614 125.296 39.752 125.296 40.1849C125.296 40.4115 125.399 40.766 126.107 40.9898L126.709 41.1757C127.414 41.4024 128.464 41.7569 128.993 42.4542C129.293 42.8918 129.452 43.4096 129.449 43.939C129.458 44.3667 129.373 44.7911 129.201 45.1833C129.028 45.5754 128.773 45.9261 128.452 46.2112C127.71 46.8689 126.737 47.2093 125.744 47.1584C125.089 47.1754 124.438 47.0515 123.836 46.7952C123.234 46.5389 122.694 46.1563 122.255 45.6736L123.583 44.1453C123.825 44.4451 124.127 44.6917 124.471 44.8693C124.814 45.0468 125.191 45.1515 125.577 45.1768C126.285 45.1768 126.823 44.8281 126.823 44.2092C126.823 43.6513 126.367 43.4247 126.033 43.2997L125.449 43.0934C124.73 42.8888 124.068 42.5219 123.515 42.0213C123.293 41.7946 123.118 41.5263 123.001 41.2321C122.883 40.9379 122.826 40.6234 122.831 40.3069C122.829 39.921 122.911 39.5393 123.072 39.1881C123.234 38.8369 123.469 38.5247 123.764 38.273C124.472 37.718 125.384 37.6338 126.104 37.6338C127.141 37.6124 128.153 37.9481 128.97 38.5839L127.736 40.06Z" fill="#231916"/>
</g>
<defs>
<clipPath id="clip0_7016_1997">
<rect width="145" height="50" fill="white"/>
</clipPath>
</defs>
</svg>
