<svg width="26" height="26" viewBox="0 0 26 26" fill="none" xmlns="http://www.w3.org/2000/svg">
<g clip-path="url(#clip0_288_513)">
<path d="M24.9156 0.00929559C25.5713 0.142705 25.9931 0.626039 25.9947 1.29254C26.0006 3.87542 26.0006 6.45831 25.9947 9.0412C25.9947 9.82252 25.503 10.3775 24.773 10.4792C24.4496 10.5232 24.1212 10.4506 23.8465 10.2744C23.5717 10.0981 23.3687 9.82981 23.2737 9.51742C23.2219 9.3246 23.1972 9.12548 23.2004 8.92583C23.1939 7.65298 23.1972 4.91372 23.1972 4.82514C21.5033 6.52501 19.8177 8.21505 18.1156 9.91929C19.9592 12.4639 20.5575 15.3322 19.7843 18.4422C19.1926 20.8266 17.8665 22.7457 15.8541 24.1569C11.7014 27.0667 6.15051 26.4724 2.64862 22.7665C-0.696998 19.2262 -0.896433 13.5656 2.17653 9.64974C5.35386 5.60099 11.5665 4.51021 16.0803 7.87223L21.1509 2.79011C21.081 2.78683 18.3151 2.78136 17.0239 2.77589C16.2961 2.77261 15.7601 2.37567 15.5978 1.74033C15.3902 0.926756 15.871 0.167856 16.6988 0.00492226C16.7518 -0.00327912 24.8637 -0.00163958 24.9156 0.00929559ZM10.0857 23.2465C14.0974 23.2673 17.3791 20.0124 17.4026 15.9905C17.4115 15.0291 17.2303 14.0755 16.8692 13.1845C16.5082 12.2936 15.9746 11.4829 15.2991 10.7992C14.6236 10.1155 13.8196 9.57238 12.9333 9.20103C12.0471 8.82968 11.0962 8.63748 10.1354 8.6355C9.17495 8.6301 8.22285 8.81453 7.33377 9.17819C6.44469 9.54185 5.63611 10.0776 4.95443 10.7547C4.27275 11.4318 3.73138 12.2369 3.36139 13.1239C2.99139 14.0108 2.80005 14.9621 2.79834 15.9232C2.78577 19.9468 6.0467 23.223 10.0857 23.2465Z" fill="#5183F4"/>
</g>
<defs>
<clipPath id="clip0_288_513">
<rect width="26" height="26" fill="white"/>
</clipPath>
</defs>
</svg>
