<svg width="60" height="60" viewBox="0 0 60 60" fill="none" xmlns="http://www.w3.org/2000/svg">
<g clip-path="url(#clip0_624_2491)">
<path d="M41.3177 8.643C41.4563 8.66187 41.5937 8.68192 41.7312 8.70316C46.8801 9.49118 51.4933 11.4435 55.2407 15.1666C61.7535 21.6406 61.5597 30.9471 54.819 37.1888C53.4436 38.4692 51.9025 39.5576 50.2375 40.4246C49.851 40.6252 49.7159 40.8575 49.7171 41.2834C49.7171 42.9692 49.6818 44.6549 49.6595 46.3419C49.6595 46.8312 49.5298 47.3964 49.125 47.7291C48.7867 48.0111 48.3896 47.8212 48.0536 47.5723C46.2457 46.2345 44.4284 44.9109 42.6334 43.5614C42.2281 43.2546 41.8498 43.2075 41.3482 43.2381C39.3042 43.3455 37.2554 43.3561 35.2102 43.4233C34.8889 43.4264 34.5739 43.5134 34.2962 43.6758C29.8263 46.6167 24.8912 47.7787 19.599 47.5687C18.7238 47.5345 17.8522 47.3847 16.9758 47.3328C16.7123 47.3312 16.4552 47.4138 16.2416 47.5687C14.5617 48.7826 12.8948 50.0154 11.2302 51.2493C10.8695 51.5183 10.5077 51.7353 10.0495 51.5124C9.59138 51.2894 9.53147 50.8635 9.5256 50.4165C9.50563 48.9855 9.43279 47.5522 9.48331 46.1236C9.51268 45.2978 9.26128 44.8614 8.51062 44.4556C5.83808 43.0081 3.62251 41.0239 2.01311 38.4085C0.969792 36.7449 0.30772 34.8692 0.074789 32.9172C0.0677406 32.8605 0.0418985 32.3438 0.0184037 31.7434C-0.0324542 30.6044 0.0714885 29.4638 0.327362 28.353C0.350857 28.2563 0.374351 28.1595 0.400195 28.0628C1.45746 24.0731 3.94322 21.1428 7.31473 18.9168C10.873 16.5692 14.8331 15.4379 19.0539 15.1501C19.4534 15.1229 19.9432 15.0321 20.2169 14.7797C23.767 11.5179 27.9702 9.64808 32.6692 8.82938C33.1532 8.74445 33.6407 8.67839 34.1282 8.62058C36.5162 8.32554 38.9316 8.33307 41.3177 8.643ZM47.7048 45.0536L47.9174 45.0065C47.9174 43.5614 47.9608 42.1139 47.9009 40.6712C47.8669 39.8395 48.1852 39.3877 48.9159 39.0349C51.2102 37.9261 53.2495 36.4479 54.8777 34.4696C58.3268 30.277 59.2243 25.6515 56.9324 20.6202C55.431 17.3313 52.8677 14.9861 49.7394 13.2909C43.525 9.92294 36.977 9.38973 30.2222 11.2631C26.1823 12.3837 22.6557 14.4163 19.9738 17.7182C17.36 20.9352 16.2956 24.5934 17.2237 28.701C17.9555 31.9439 19.7905 34.5321 22.3503 36.5683C28.0701 41.1147 34.6416 42.3227 41.7265 41.3389C42.2716 41.2634 42.6992 41.3389 43.1362 41.6774C44.6492 42.8193 46.1811 43.9306 47.7048 45.0536ZM17.9227 17.0859C17.7852 17.1036 17.5338 17.1272 17.2848 17.1673C16.8231 17.2416 16.3591 17.3124 15.9009 17.4033C11.9761 18.222 8.45893 19.8499 5.58903 22.7212C0.890061 27.4175 0.504743 33.7972 4.5952 38.9005C6.17758 40.8741 8.17582 42.3215 10.4337 43.4257C10.9893 43.6958 11.2489 44.0733 11.2419 44.7104C11.229 45.9054 11.2783 47.1004 11.3065 48.2966C11.3065 48.457 11.3394 48.6186 11.3652 48.8534C12.8184 47.7834 14.1846 46.7429 15.5943 45.765C15.9391 45.5302 16.3542 45.4227 16.7691 45.4606C20.0565 45.9901 23.4166 45.8469 26.6475 45.0395C28.4807 44.5898 30.2442 43.8908 31.8892 42.9621C31.3253 42.8193 30.8589 42.7085 30.3949 42.5846C25.6572 41.3082 21.5044 39.0456 18.4125 35.1338C15.1879 31.0474 14.1576 26.4608 15.8351 21.4495C16.3544 19.9348 17.2213 18.5369 17.9227 17.0859Z" fill="#5183F4"/>
<path d="M47.4644 28.7842C46.6053 28.7876 45.7797 28.4565 45.1675 27.8631C44.5553 27.2696 44.2062 26.462 44.1963 25.6162C44.1944 24.7706 44.5323 23.9586 45.1361 23.3573C45.74 22.756 46.561 22.4142 47.4198 22.4066C47.85 22.4003 48.2773 22.4782 48.6767 22.6358C49.0761 22.7934 49.4398 23.0276 49.7465 23.3247C50.0533 23.6217 50.2971 23.9759 50.4637 24.3665C50.6304 24.7571 50.7166 25.1764 50.7173 25.6C50.7111 26.4458 50.3658 27.255 49.7566 27.8513C49.1474 28.4477 48.3235 28.783 47.4644 28.7842ZM48.8741 25.6162C48.8766 25.4294 48.8412 25.244 48.7699 25.0708C48.6986 24.8977 48.5928 24.7403 48.4589 24.608C48.3249 24.4757 48.1654 24.3711 47.9898 24.3003C47.8142 24.2295 47.626 24.194 47.4362 24.1959C47.0631 24.2013 46.7071 24.3508 46.4448 24.6121C46.1824 24.8734 46.0348 25.2257 46.0336 25.5931C46.0324 25.7798 46.0687 25.9649 46.1405 26.1378C46.2123 26.3106 46.3181 26.4678 46.4519 26.6001C46.5857 26.7325 46.7447 26.8375 46.9199 26.909C47.0951 26.9805 47.283 27.0172 47.4727 27.0169C47.8459 27.0099 48.2016 26.8595 48.4637 26.5978C48.7258 26.3361 48.8735 25.9838 48.8753 25.6162H48.8741Z" fill="#5183F4"/>
<path d="M27.645 28.7831C26.7861 28.7937 25.9578 28.4688 25.3414 27.8797C24.725 27.2906 24.3706 26.4851 24.3558 25.6395C24.35 25.2155 24.43 24.7947 24.591 24.4015C24.7521 24.0083 24.991 23.6505 25.2938 23.3491C25.5967 23.0477 25.9574 22.8087 26.355 22.6459C26.7526 22.4831 27.1792 22.3998 27.6098 22.4009C28.469 22.3963 29.2949 22.7278 29.906 23.3225C30.517 23.9172 30.8633 24.7264 30.8685 25.5724C30.8732 26.4189 30.5363 27.2327 29.9319 27.8347C29.3274 28.4368 28.5049 28.7779 27.645 28.7831ZM26.1966 25.6094C26.1965 25.9768 26.3422 26.3296 26.6028 26.5926C26.8633 26.8556 27.218 27.0079 27.591 27.017C27.974 27.0179 28.3418 26.8693 28.6138 26.6037C28.8857 26.3381 29.0396 25.9772 29.0418 25.6001C29.0397 25.4133 29.0002 25.2287 28.9256 25.0569C28.8509 24.8851 28.7427 24.7295 28.607 24.5989C28.4713 24.4683 28.3108 24.3653 28.1346 24.2958C27.9585 24.2262 27.7702 24.1915 27.5804 24.1937C27.2083 24.2057 26.8556 24.3605 26.5977 24.625C26.3398 24.8895 26.1971 25.2428 26.2001 25.6094H26.1966Z" fill="#5183F4"/>
<path d="M37.5246 22.4065C37.9495 22.4014 38.3712 22.4793 38.7655 22.6355C39.1597 22.7916 39.5186 23.0231 39.8216 23.3165C40.1245 23.61 40.3654 23.9595 40.5305 24.3451C40.6956 24.7306 40.7815 25.1445 40.7833 25.5629C40.7899 25.9863 40.7104 26.4067 40.5493 26.7993C40.3883 27.1919 40.149 27.5488 39.8456 27.8489C39.5422 28.149 39.1808 28.3863 38.7828 28.5467C38.3848 28.7071 37.9582 28.7874 37.5281 28.7829C37.1031 28.7844 36.6819 28.703 36.289 28.5433C35.8961 28.3836 35.5392 28.1488 35.239 27.8525C34.9389 27.5562 34.7013 27.2043 34.5401 26.817C34.3789 26.4298 34.2973 26.0149 34.2999 25.5964C34.2963 25.1778 34.3772 24.7626 34.5378 24.375C34.6984 23.9874 34.9355 23.635 35.2355 23.3383C35.5354 23.0415 35.8922 22.8064 36.2852 22.6464C36.6781 22.4865 37.0994 22.4049 37.5246 22.4065ZM38.9742 25.6566C38.9821 25.289 38.8461 24.9326 38.5944 24.6611C38.3427 24.3896 37.9945 24.2238 37.6221 24.1981C37.2384 24.1801 36.8632 24.3126 36.5785 24.5664C36.2939 24.8203 36.1229 25.1748 36.1031 25.5525C36.0967 25.92 36.2331 26.276 36.4844 26.5478C36.7357 26.8195 37.0831 26.9865 37.4553 27.0144C37.8387 27.0293 38.2127 26.8953 38.4968 26.6414C38.7809 26.3874 38.9523 26.0338 38.9742 25.6566Z" fill="#5183F4"/>
</g>
<defs>
<clipPath id="clip0_624_2491">
<rect width="60" height="60" fill="white"/>
</clipPath>
</defs>
</svg>
