<svg width="26" height="26" viewBox="0 0 26 26" fill="none" xmlns="http://www.w3.org/2000/svg">
<path d="M4.66974 15.44C4.70255 15.2772 4.74395 15.1162 4.79379 14.9575C5.89838 11.4958 8.29392 9.47921 11.9462 8.89511L12.073 8.87642V5.67569C11.7486 5.88724 11.4489 6.08231 11.1503 6.28012C10.6243 6.62575 10.1007 6.97467 9.57307 7.31864C9.07858 7.64064 8.54032 7.56206 8.24621 7.13072C7.9521 6.69938 8.09466 6.18286 8.58578 5.85867C9.50403 5.25424 10.4223 4.64596 11.3708 4.02065C11.2698 3.94922 11.1918 3.89152 11.111 3.83767C10.2455 3.26401 9.38055 2.69164 8.51618 2.12054C8.17942 1.89745 8.04639 1.5782 8.12329 1.19356C8.19682 0.827609 8.44602 0.605618 8.81422 0.520998C9.09486 0.45561 9.34295 0.550121 9.57644 0.705075C10.6339 1.40512 11.6969 2.09801 12.751 2.803C12.9194 2.91674 13.0418 2.92663 13.218 2.80794C14.271 2.10131 15.334 1.40896 16.3915 0.707822C16.6244 0.553417 16.8691 0.45616 17.1526 0.5199C17.5213 0.602322 17.7728 0.822113 17.848 1.18807C17.9271 1.57271 17.7975 1.89415 17.4607 2.11724C16.6128 2.68065 15.7628 3.24167 14.9108 3.80031C14.8188 3.86075 14.729 3.92449 14.6117 4.00472C14.6992 4.06955 14.7683 4.12395 14.8412 4.16956C15.691 4.73113 16.5413 5.2916 17.3922 5.85098C17.6274 6.00483 17.8065 6.19385 17.853 6.47409C17.9125 6.83235 17.8076 7.13347 17.5034 7.34447C17.3496 7.44825 17.1674 7.50415 16.9806 7.50483C16.7938 7.50552 16.6112 7.45097 16.4566 7.34832C15.6994 6.85378 14.9445 6.35375 14.189 5.85647C14.1048 5.80152 14.0206 5.74657 13.905 5.67294V8.79895C14.6728 9.01544 15.4519 9.17095 16.1804 9.45173C19.5481 10.7496 21.75 14.1943 21.4772 17.6676C21.1809 21.4337 18.5507 24.4779 14.8895 25.2829L14.7144 25.3197C14.0804 25.4423 13.4354 25.5027 12.7892 25.4999H12.7331C12.5311 25.4954 12.3295 25.4802 12.1291 25.4543C10.4317 25.2881 8.82511 24.6242 7.51951 23.5494C6.21391 22.4746 5.27015 21.0389 4.81175 19.4303C4.76516 19.2655 4.72587 19.1006 4.69051 18.9358C4.44369 17.7837 4.43663 16.5948 4.66974 15.44ZM6.27107 17.1731C6.27107 20.7996 9.27784 23.7438 12.9755 23.7476C13.8587 23.7479 14.7333 23.5778 15.5492 23.2469C16.3652 22.9161 17.1065 22.431 17.7309 21.8195C18.3552 21.208 18.8503 20.482 19.1878 19.683C19.5254 18.884 19.6987 18.0278 19.698 17.1632C19.6968 15.4218 18.9904 13.752 17.7336 12.5198C16.4768 11.2876 14.7722 10.5935 12.9935 10.5897C12.1104 10.5893 11.2359 10.7594 10.42 11.0901C9.60407 11.4209 8.86275 11.9058 8.23841 12.5173C7.61407 13.1287 7.11896 13.8546 6.78139 14.6535C6.44382 15.4523 6.27041 16.3085 6.27107 17.1731Z" fill="#5183F4"/>
</svg>
