<svg width="36" height="36" viewBox="0 0 36 36" fill="none" xmlns="http://www.w3.org/2000/svg">
<circle cx="18" cy="18" r="17.5" fill="white" stroke="#181A20"/>
<path d="M23.7599 11.88C23.7599 14.8623 21.3422 17.28 18.3599 17.28C15.3776 17.28 12.9599 14.8623 12.9599 11.88C12.9599 8.89767 15.3776 6.48001 18.3599 6.48001C21.3422 6.48001 23.7599 8.89767 23.7599 11.88Z" fill="white"/>
<path fill-rule="evenodd" clip-rule="evenodd" d="M18.3599 16.2C20.7458 16.2 22.6799 14.2659 22.6799 11.88C22.6799 9.49414 20.7458 7.56001 18.3599 7.56001C15.974 7.56001 14.0399 9.49414 14.0399 11.88C14.0399 14.2659 15.974 16.2 18.3599 16.2ZM18.3599 17.28C21.3422 17.28 23.7599 14.8623 23.7599 11.88C23.7599 8.89767 21.3422 6.48001 18.3599 6.48001C15.3776 6.48001 12.9599 8.89767 12.9599 11.88C12.9599 14.8623 15.3776 17.28 18.3599 17.28Z" fill="#181A20"/>
<path d="M27.3599 24.12C27.3599 27.1024 23.3304 29.52 18.3599 29.52C13.3893 29.52 9.35986 27.1024 9.35986 24.12C9.35986 21.1377 13.3893 18.72 18.3599 18.72C23.3304 18.72 27.3599 21.1377 27.3599 24.12Z" fill="white"/>
<path fill-rule="evenodd" clip-rule="evenodd" d="M24.1682 27.0123C25.6238 26.1389 26.2799 25.0828 26.2799 24.12C26.2799 23.1572 25.6238 22.1011 24.1682 21.2277C22.734 20.3672 20.6831 19.8 18.3599 19.8C16.0367 19.8 13.9857 20.3672 12.5516 21.2277C11.0959 22.1011 10.4399 23.1572 10.4399 24.12C10.4399 25.0828 11.0959 26.1389 12.5516 27.0123C13.9857 27.8728 16.0367 28.44 18.3599 28.44C20.6831 28.44 22.734 27.8728 24.1682 27.0123ZM18.3599 29.52C23.3304 29.52 27.3599 27.1024 27.3599 24.12C27.3599 21.1377 23.3304 18.72 18.3599 18.72C13.3893 18.72 9.35986 21.1377 9.35986 24.12C9.35986 27.1024 13.3893 29.52 18.3599 29.52Z" fill="#181A20"/>
</svg>
