<svg width="50" height="50" viewBox="0 0 50 50" fill="none" xmlns="http://www.w3.org/2000/svg">
<circle cx="25" cy="25" r="24.5" fill="white" stroke="#181A20"/>
<path d="M32.9998 16.5C32.9998 20.6422 29.6419 24 25.4998 24C21.3576 24 17.9998 20.6422 17.9998 16.5C17.9998 12.3579 21.3576 9.00002 25.4998 9.00002C29.6419 9.00002 32.9998 12.3579 32.9998 16.5Z" fill="white"/>
<path fill-rule="evenodd" clip-rule="evenodd" d="M25.4998 22.5C28.8135 22.5 31.4998 19.8137 31.4998 16.5C31.4998 13.1863 28.8135 10.5 25.4998 10.5C22.186 10.5 19.4998 13.1863 19.4998 16.5C19.4998 19.8137 22.186 22.5 25.4998 22.5ZM25.4998 24C29.6419 24 32.9998 20.6422 32.9998 16.5C32.9998 12.3579 29.6419 9.00002 25.4998 9.00002C21.3576 9.00002 17.9998 12.3579 17.9998 16.5C17.9998 20.6422 21.3576 24 25.4998 24Z" fill="#181A20"/>
<path d="M37.9998 33.5C37.9998 37.6422 32.4033 41 25.4998 41C18.5962 41 12.9998 37.6422 12.9998 33.5C12.9998 29.3579 18.5962 26 25.4998 26C32.4033 26 37.9998 29.3579 37.9998 33.5Z" fill="white"/>
<path fill-rule="evenodd" clip-rule="evenodd" d="M33.5668 37.5171C35.5886 36.304 36.4998 34.8372 36.4998 33.5C36.4998 32.1628 35.5886 30.696 33.5668 29.483C31.575 28.2878 28.7264 27.5 25.4998 27.5C22.2731 27.5 19.4245 28.2878 17.4327 29.483C15.4109 30.696 14.4998 32.1628 14.4998 33.5C14.4998 34.8372 15.4109 36.304 17.4327 37.5171C19.4245 38.7122 22.2731 39.5 25.4998 39.5C28.7264 39.5 31.575 38.7122 33.5668 37.5171ZM25.4998 41C32.4033 41 37.9998 37.6422 37.9998 33.5C37.9998 29.3579 32.4033 26 25.4998 26C18.5962 26 12.9998 29.3579 12.9998 33.5C12.9998 37.6422 18.5962 41 25.4998 41Z" fill="#181A20"/>
</svg>
