<svg width="96" height="67" viewBox="0 0 96 67" fill="none" xmlns="http://www.w3.org/2000/svg">
<path opacity="0.1" d="M74.8726 67C68.7774 67 63.7117 64.9062 59.6757 60.7188C55.6396 56.4491 53.6216 50.2911 53.6216 42.2445C53.6216 35.1011 54.9807 28.7788 57.6988 23.2776C60.417 17.7763 63.9176 13.0551 68.2008 9.11397C72.5663 5.1728 77.0142 2.13481 81.5444 0L89.5753 7.63603C87.5984 8.45711 85.0862 10.0582 82.0386 12.4393C79.0734 14.8205 76.3964 17.6121 74.0077 20.8143C71.7014 23.9344 70.5071 27.2188 70.4247 30.6673C71.2484 29.682 72.5663 28.943 74.3784 28.4504C76.2728 27.8756 78.2085 27.5882 80.1853 27.5882C84.139 27.5882 87.7632 29.0662 91.0579 32.0221C94.3526 34.9779 96 39.4528 96 45.4467C96 52.0153 93.982 57.2702 89.9459 61.2114C85.9099 65.0705 80.8855 67 74.8726 67ZM21.251 67C15.1557 67 10.0901 64.9062 6.05405 60.7188C2.01802 56.4491 0 50.2911 0 42.2445C0 35.1011 1.35907 28.7788 4.07722 23.2776C6.79537 17.7763 10.296 13.0551 14.5792 9.11397C18.9447 5.1728 23.3925 2.13481 27.9228 0L35.9537 7.63603C33.9768 8.45711 31.4646 10.0582 28.417 12.4393C25.4517 14.8205 22.7748 17.6121 20.3861 20.8143C18.0798 23.9344 16.8855 27.2188 16.8031 30.6673C17.6268 29.682 18.9447 28.943 20.7568 28.4504C22.6512 27.8756 24.5869 27.5882 26.5637 27.5882C30.5174 27.5882 34.1416 29.0662 37.4363 32.0221C40.731 34.9779 42.3784 39.4528 42.3784 45.4467C42.3784 52.0153 40.3604 57.2702 36.3243 61.2114C32.2883 65.0705 27.2638 67 21.251 67Z" fill="#5183F4"/>
</svg>
