<svg width="316" height="190" viewBox="0 0 316 190" fill="none" xmlns="http://www.w3.org/2000/svg">
<g filter="url(#filter0_d_46_67)">
<rect x="50" y="46" width="216" height="90" rx="20" fill="white" shape-rendering="crispEdges"/>
<path d="M92.5438 61.7552C93.2461 61.2753 94.0711 61.0133 94.9177 61.0014C95.7644 60.9895 96.5962 61.228 97.3114 61.688L97.3312 61.7009C98.1195 62.2371 98.8799 62.8145 99.6092 63.4306C100.67 64.3431 102.035 64.8077 103.423 64.7284C104.47 64.68 105.516 64.6718 106.563 64.7013C107.327 64.7236 108.066 64.9807 108.682 65.4385C109.299 65.8964 109.764 66.5333 110.015 67.2651C110.371 68.2927 110.67 69.3428 110.972 70.3893C111.315 71.6512 112.101 72.7423 113.182 73.4569C114.1 74.0764 115.014 74.7088 115.883 75.3966C117.003 76.2827 117.611 77.4413 117.233 78.9078C116.911 80.1538 116.497 81.3773 116.08 82.5949C115.649 83.8498 115.658 85.217 116.105 86.4659C116.462 87.4606 116.817 88.4599 117.112 89.4746C117.646 91.3151 117.245 92.5528 115.737 93.722C114.938 94.3426 114.109 94.9231 113.264 95.4812C112.02 96.3071 111.247 97.4444 110.883 98.9228C110.656 99.9053 110.355 100.869 109.982 101.804C109.788 102.276 109.76 102.616 109.927 103.045C111.368 106.751 112.733 110.489 114.253 114.159C114.834 115.568 114.406 116.692 112.484 116.364C110.729 116.066 108.949 115.926 107.184 115.686C106.727 115.625 106.439 115.764 106.148 116.119C104.973 117.554 103.781 118.974 102.57 120.378C102.502 120.456 102.431 120.531 102.356 120.602C102.188 120.761 101.984 120.876 101.762 120.936C101.541 120.997 101.308 121.002 101.084 120.951C100.86 120.9 100.652 120.794 100.477 120.642C100.303 120.491 100.167 120.299 100.082 120.082C100.079 120.076 100.077 120.07 100.074 120.063C98.6231 116.259 97.1521 112.464 95.6962 108.662C95.5672 108.326 95.4532 108.122 95.0148 108.129C94.5985 108.129 94.4543 108.29 94.3171 108.641C92.8915 112.371 91.4461 116.093 90.0216 119.823C89.9832 119.923 89.9448 120.023 89.9053 120.12C89.5018 121.08 88.2343 121.31 87.554 120.528L87.5447 120.518C86.3493 119.123 85.1516 117.731 84.0074 116.295C83.5899 115.771 83.1783 115.626 82.5271 115.72C80.6305 115.995 78.7246 116.213 76.8176 116.41C75.8303 116.513 75.2582 115.738 75.5512 114.778C75.6082 114.59 75.6838 114.408 75.7536 114.225C77.1978 110.48 78.6397 106.733 80.0793 102.985C80.1837 102.741 80.2121 102.471 80.1607 102.21C79.8723 101.213 79.463 100.25 79.2305 99.2437C78.813 97.4303 77.8257 96.1065 76.2699 95.139C75.3985 94.5903 74.5718 93.9716 73.7977 93.289C72.8674 92.4773 72.4406 91.4012 72.7639 90.1636C73.0942 88.8964 73.5116 87.6517 73.9267 86.4093C74.3605 85.1783 74.3605 83.8329 73.9267 82.6019C73.5674 81.566 73.1953 80.5325 72.8907 79.4789C72.3662 77.669 72.7744 76.4384 74.2605 75.2857C75.0745 74.6545 75.9187 74.0563 76.7769 73.4876C77.9478 72.7125 78.6874 71.6388 79.0688 70.2761C79.3572 69.2378 79.663 68.2031 80.0189 67.1872C80.5875 65.5673 81.7375 64.7095 83.4469 64.6966C84.4539 64.6871 85.4633 64.6682 86.4703 64.7249C88.0006 64.811 89.3076 64.3343 90.4949 63.361C91.1623 62.81 91.8252 62.2378 92.5438 61.7552ZM85.4505 67.0704C84.9458 67.0704 84.2295 67.0704 83.512 67.0704C82.8713 67.0704 82.4387 67.3642 82.2387 67.9789C81.991 68.7423 81.7154 69.5009 81.5352 70.282C80.9701 72.7125 79.6502 74.5495 77.5571 75.8497C76.8401 76.3154 76.1469 76.8179 75.4803 77.3552C75.0756 77.6655 74.9128 78.0878 75.0861 78.6082C75.3838 79.4989 75.6396 80.4062 75.9757 81.2829C76.8013 83.3469 76.8013 85.6561 75.9757 87.7201C75.6536 88.559 75.4012 89.4274 75.1094 90.2792C74.9 90.888 75.0931 91.3623 75.5745 91.7245C76.2303 92.2118 76.878 92.718 77.5699 93.1403C79.6502 94.4264 80.9421 96.2622 81.5236 98.6585C81.7282 99.5127 82.0364 100.343 82.3201 101.176C82.3818 101.387 82.5106 101.57 82.6864 101.699C82.8621 101.827 83.0748 101.892 83.2911 101.884C84.2214 101.892 85.1516 101.925 86.0819 101.869C88.4459 101.727 90.5007 102.443 92.2949 104.006C92.9252 104.553 93.6194 105.027 94.2997 105.512C94.5018 105.67 94.7494 105.756 95.0045 105.757C95.2596 105.758 95.508 105.674 95.7114 105.518C96.3474 105.071 97.0044 104.642 97.5824 104.125C99.4883 102.42 101.685 101.673 104.218 101.872C105.026 101.936 105.845 101.895 106.659 101.895C107.212 101.895 107.579 101.603 107.75 101.088C108.021 100.27 108.305 99.4537 108.511 98.6184C109.092 96.2492 110.383 94.4311 112.44 93.151C113.163 92.7014 113.842 92.1717 114.523 91.6526C114.945 91.3293 115.116 90.8939 114.931 90.3547C114.66 89.5583 114.439 88.7407 114.126 87.962C113.196 85.6424 113.196 83.3429 114.126 81.0233C114.433 80.2635 114.646 79.4635 114.912 78.686C115.112 78.0961 114.928 77.636 114.461 77.2879C113.745 76.7534 113.031 76.2095 112.278 75.7281C110.388 74.5176 109.153 72.8411 108.589 70.6395C108.356 69.7298 108.049 68.8378 107.763 67.9423C107.572 67.3453 107.143 67.0657 106.529 67.0716C105.657 67.0799 104.785 67.0716 103.914 67.1046C102.131 67.1778 100.426 66.9265 98.9313 65.8623C98.2498 65.3785 97.5952 64.8535 96.9347 64.3403C95.0392 62.869 94.9869 62.882 93.0973 64.3237C92.1566 65.0423 91.2112 65.7738 90.1902 66.3672C88.7913 67.1825 87.218 67.1672 85.4458 67.0704H85.4505ZM88.2994 117.741C89.6483 114.242 90.9612 110.848 92.2531 107.444C92.3077 107.297 92.1938 106.998 92.0624 106.883C91.5333 106.423 90.9472 106.033 90.4181 105.572C89.2657 104.57 87.9262 104.213 86.4366 104.246C85.0307 104.277 83.6248 104.253 82.1341 104.253L78.4467 113.828C80.0828 113.632 81.6061 113.496 83.112 113.252C84.0167 113.105 84.6574 113.32 85.233 114.064C86.1796 115.296 87.218 116.461 88.2948 117.741H88.2994ZM107.835 104.128C107.525 104.18 107.26 104.262 106.994 104.264C105.754 104.275 104.516 104.275 103.28 104.264C102.001 104.247 100.838 104.587 99.8266 105.414C99.2452 105.895 98.6452 106.37 98.0242 106.805C97.6812 107.041 97.6661 107.268 97.8103 107.637C99.0638 110.846 100.298 114.064 101.54 117.278C101.59 117.409 101.664 117.531 101.752 117.708C102.867 116.386 103.95 115.129 104.998 113.844C105.411 113.338 105.88 113.131 106.519 113.215C107.958 113.408 109.4 113.569 110.842 113.75C111.058 113.777 111.277 113.787 111.571 113.81L107.835 104.128Z" fill="#5183F4"/>
<path d="M79.6942 84.4083C79.8256 75.4722 86.9514 68.8426 95.2169 68.9771C103.745 69.1152 110.373 76.1152 110.292 84.5511C110.208 93.315 103.153 100.212 94.7553 100.021C90.7279 99.9445 86.8916 98.2645 84.074 95.3437C81.2565 92.4229 79.6834 88.4954 79.6942 84.4083ZM82.0606 84.4473C81.9966 91.6326 87.7422 97.5436 94.882 97.6321C102.022 97.7206 107.843 91.9051 107.945 84.5747C108.045 77.3776 102.215 71.4052 95.0378 71.3439C87.9457 71.2849 82.1245 77.1641 82.0606 84.4473Z" fill="#5183F4"/>
<path d="M89.0689 91.4825C89.3015 90.0666 89.5643 88.5989 89.7806 87.117C89.7927 86.9916 89.7799 86.865 89.7427 86.7448C89.7055 86.6246 89.6449 86.5132 89.5643 86.4174C88.6282 85.4499 87.6631 84.5096 86.6967 83.5716C86.2653 83.1515 85.9618 82.6902 86.1793 82.0625C86.3874 81.4596 86.8967 81.3004 87.4642 81.2225C88.8073 81.0373 90.1504 80.8461 91.4865 80.6184C91.5982 80.5857 91.7024 80.5307 91.7928 80.4565C91.8833 80.3823 91.9582 80.2906 92.0132 80.1866C92.6016 79.0362 93.1621 77.8717 93.7168 76.7049C93.9877 76.1373 94.2773 75.5899 94.9959 75.5816C95.7145 75.5734 96.0169 76.1031 96.2878 76.6754C96.8227 77.8092 97.3925 78.9253 97.9158 80.0615C98.0891 80.4344 98.2949 80.6196 98.7298 80.6703C100.037 80.8237 101.337 81.0432 102.639 81.2343C103.188 81.3145 103.66 81.5116 103.845 82.0979C104.03 82.6843 103.783 83.1197 103.38 83.5138C102.414 84.4576 101.467 85.411 100.497 86.3454C100.251 86.5814 100.148 86.7949 100.218 87.1607C100.469 88.4703 100.671 89.7906 100.897 91.1061C101 91.696 101.004 92.2553 100.464 92.647C99.9461 93.021 99.4461 92.8582 98.9391 92.5821C97.796 91.9603 96.6367 91.3704 95.4994 90.738C95.1506 90.548 94.8924 90.5303 94.5389 90.7273C93.3179 91.4093 92.0842 92.0669 90.8376 92.7001C89.905 93.1755 89.0224 92.575 89.0689 91.4825ZM91.7981 89.5097C92.6842 89.0378 93.461 88.6426 94.2156 88.2119C94.454 88.0607 94.7294 87.9805 95.0104 87.9805C95.2915 87.9805 95.5669 88.0607 95.8052 88.2119C96.5611 88.6414 97.3355 89.0378 98.21 89.5003C98.0495 88.501 97.9356 87.6126 97.7553 86.7383C97.6286 86.1271 97.7983 85.667 98.2263 85.2552C98.7751 84.7302 99.3135 84.1933 99.8542 83.6542C99.955 83.5382 100.049 83.4161 100.134 83.2884C99.2275 83.1527 98.4077 82.9934 97.5762 82.9168C96.8785 82.8519 96.4506 82.5097 96.168 81.8749C95.8192 81.0986 95.4285 80.3411 95.0052 79.4728C94.5552 80.3919 94.1482 81.1871 93.7749 81.9977C93.5203 82.5498 93.1214 82.8306 92.5249 82.9026C91.6539 83.0076 90.7876 83.161 89.9457 83.2896C90.5667 83.9597 91.1458 84.6157 91.7597 85.2352C92.1935 85.6729 92.3853 86.1342 92.2504 86.769C92.0679 87.6244 91.9586 88.4998 91.7958 89.5097H91.7981Z" fill="#5183F4"/>
<path d="M145.5 69.7C145.02 69.7 144.597 69.81 144.23 70.03C143.863 70.2433 143.557 70.4933 143.31 70.78C143.063 71.0667 142.873 71.3267 142.74 71.56C142.613 71.7933 142.543 71.93 142.53 71.97L140.38 70.99C140.393 70.9167 140.457 70.7567 140.57 70.51C140.683 70.2567 140.86 69.9633 141.1 69.63C141.347 69.2967 141.667 68.9733 142.06 68.66C142.453 68.3467 142.933 68.0867 143.5 67.88C144.067 67.6667 144.733 67.56 145.5 67.56C146.353 67.56 147.07 67.68 147.65 67.92C148.237 68.16 148.703 68.4833 149.05 68.89C149.403 69.29 149.657 69.74 149.81 70.24C149.97 70.7333 150.05 71.2333 150.05 71.74C150.05 72.3133 149.927 72.8767 149.68 73.43C149.44 73.9833 149.123 74.5167 148.73 75.03C148.343 75.5367 147.927 76.01 147.48 76.45C147.033 76.8833 146.603 77.27 146.19 77.61C145.783 77.9433 145.433 78.2133 145.14 78.42C144.847 78.6267 144.667 78.7567 144.6 78.81H149.94V81H140.8V79C140.94 78.8933 141.2 78.7 141.58 78.42C141.96 78.1333 142.403 77.7867 142.91 77.38C143.417 76.9733 143.937 76.53 144.47 76.05C145.01 75.57 145.51 75.0767 145.97 74.57C146.437 74.0633 146.813 73.5667 147.1 73.08C147.393 72.5867 147.54 72.13 147.54 71.71C147.54 70.9767 147.363 70.46 147.01 70.16C146.657 69.8533 146.153 69.7 145.5 69.7ZM159.331 67.8V76.02H160.861V78.22H159.331V81H156.841V78.22H151.361V76.22L156.511 67.8H159.331ZM156.841 76.02V71.15H156.821L153.901 76.02H156.841ZM168.435 67.24H170.485L163.895 82.92H161.845L168.435 67.24ZM172.31 67.8H181.43V69.51L174.89 81H172.13L178.51 69.99H172.31V67.8ZM145.11 97.8H147.62L152.7 111H150.04L149.01 108.15H143.73L142.68 111H140.01L145.11 97.8ZM144.55 105.94H148.19L146.38 100.82H146.35L144.55 105.94ZM158.119 109.22C158.552 109.22 158.905 109.147 159.179 109C159.452 108.853 159.632 108.743 159.719 108.67L160.899 110.42C160.805 110.493 160.632 110.597 160.379 110.73C160.125 110.863 159.802 110.98 159.409 111.08C159.022 111.187 158.579 111.24 158.079 111.24C157.212 111.24 156.435 111.067 155.749 110.72C155.062 110.367 154.519 109.867 154.119 109.22C153.725 108.567 153.529 107.79 153.529 106.89C153.529 105.983 153.725 105.207 154.119 104.56C154.519 103.913 155.062 103.417 155.749 103.07C156.435 102.723 157.212 102.55 158.079 102.55C158.572 102.55 159.009 102.603 159.389 102.71C159.775 102.817 160.099 102.94 160.359 103.08C160.619 103.213 160.799 103.323 160.899 103.41L159.689 105.17C159.642 105.117 159.552 105.043 159.419 104.95C159.285 104.857 159.109 104.77 158.889 104.69C158.675 104.61 158.419 104.57 158.119 104.57C157.752 104.57 157.402 104.667 157.069 104.86C156.742 105.053 156.475 105.323 156.269 105.67C156.062 106.017 155.959 106.423 155.959 106.89C155.959 107.357 156.062 107.767 156.269 108.12C156.475 108.467 156.742 108.737 157.069 108.93C157.402 109.123 157.752 109.22 158.119 109.22ZM167.636 102.55C168.196 102.55 168.743 102.667 169.276 102.9C169.81 103.127 170.246 103.49 170.586 103.99C170.933 104.49 171.106 105.143 171.106 105.95V111H168.556V106.39C168.556 105.717 168.403 105.217 168.096 104.89C167.796 104.563 167.393 104.4 166.886 104.4C166.546 104.4 166.22 104.493 165.906 104.68C165.6 104.86 165.346 105.113 165.146 105.44C164.953 105.76 164.856 106.127 164.856 106.54V111H162.306V97.24H164.856V104.1C164.923 103.873 165.086 103.64 165.346 103.4C165.606 103.16 165.936 102.96 166.336 102.8C166.736 102.633 167.17 102.55 167.636 102.55ZM173.248 111V102.79H175.778V111H173.248ZM174.548 100.67C174.128 100.67 173.771 100.523 173.478 100.23C173.191 99.9367 173.048 99.5867 173.048 99.18C173.048 98.7733 173.194 98.42 173.488 98.12C173.781 97.82 174.134 97.67 174.548 97.67C174.821 97.67 175.071 97.74 175.298 97.88C175.524 98.0133 175.708 98.1933 175.848 98.42C175.988 98.6467 176.058 98.9 176.058 99.18C176.058 99.5867 175.908 99.9367 175.608 100.23C175.314 100.523 174.961 100.67 174.548 100.67ZM179.978 107.46C179.998 107.833 180.098 108.167 180.278 108.46C180.458 108.753 180.718 108.983 181.058 109.15C181.405 109.317 181.818 109.4 182.298 109.4C182.731 109.4 183.111 109.347 183.438 109.24C183.771 109.133 184.051 109.003 184.278 108.85C184.511 108.69 184.685 108.537 184.798 108.39L185.848 109.95C185.661 110.183 185.411 110.4 185.098 110.6C184.791 110.793 184.398 110.947 183.918 111.06C183.445 111.18 182.851 111.24 182.138 111.24C181.238 111.24 180.448 111.063 179.768 110.71C179.088 110.357 178.558 109.847 178.178 109.18C177.798 108.513 177.608 107.72 177.608 106.8C177.608 106 177.778 105.28 178.118 104.64C178.458 103.993 178.951 103.483 179.598 103.11C180.251 102.737 181.035 102.55 181.948 102.55C182.808 102.55 183.551 102.717 184.178 103.05C184.811 103.377 185.301 103.857 185.648 104.49C185.995 105.123 186.168 105.897 186.168 106.81C186.168 106.863 186.165 106.973 186.158 107.14C186.158 107.3 186.151 107.407 186.138 107.46H179.978ZM183.788 105.89C183.781 105.677 183.715 105.447 183.588 105.2C183.468 104.953 183.278 104.743 183.018 104.57C182.758 104.397 182.411 104.31 181.978 104.31C181.545 104.31 181.188 104.393 180.908 104.56C180.635 104.727 180.428 104.933 180.288 105.18C180.148 105.42 180.068 105.657 180.048 105.89H183.788ZM187.103 102.79H189.823L192.073 108.68L194.323 102.79H197.033L193.563 111H190.583L187.103 102.79ZM200.31 107.46C200.33 107.833 200.43 108.167 200.61 108.46C200.79 108.753 201.05 108.983 201.39 109.15C201.737 109.317 202.15 109.4 202.63 109.4C203.063 109.4 203.443 109.347 203.77 109.24C204.103 109.133 204.383 109.003 204.61 108.85C204.843 108.69 205.017 108.537 205.13 108.39L206.18 109.95C205.993 110.183 205.743 110.4 205.43 110.6C205.123 110.793 204.73 110.947 204.25 111.06C203.777 111.18 203.183 111.24 202.47 111.24C201.57 111.24 200.78 111.063 200.1 110.71C199.42 110.357 198.89 109.847 198.51 109.18C198.13 108.513 197.94 107.72 197.94 106.8C197.94 106 198.11 105.28 198.45 104.64C198.79 103.993 199.283 103.483 199.93 103.11C200.583 102.737 201.367 102.55 202.28 102.55C203.14 102.55 203.883 102.717 204.51 103.05C205.143 103.377 205.633 103.857 205.98 104.49C206.327 105.123 206.5 105.897 206.5 106.81C206.5 106.863 206.497 106.973 206.49 107.14C206.49 107.3 206.483 107.407 206.47 107.46H200.31ZM204.12 105.89C204.113 105.677 204.047 105.447 203.92 105.2C203.8 104.953 203.61 104.743 203.35 104.57C203.09 104.397 202.743 104.31 202.31 104.31C201.877 104.31 201.52 104.393 201.24 104.56C200.967 104.727 200.76 104.933 200.62 105.18C200.48 105.42 200.4 105.657 200.38 105.89H204.12ZM218.945 102.55C219.558 102.55 220.092 102.68 220.545 102.94C221.005 103.2 221.362 103.6 221.615 104.14C221.875 104.673 222.005 105.36 222.005 106.2V111H219.505V106.61C219.505 105.917 219.402 105.377 219.195 104.99C218.995 104.603 218.612 104.41 218.045 104.41C217.725 104.41 217.432 104.497 217.165 104.67C216.898 104.837 216.685 105.083 216.525 105.41C216.372 105.737 216.295 106.137 216.295 106.61V111H213.955V106.61C213.955 105.917 213.838 105.377 213.605 104.99C213.372 104.603 213.002 104.41 212.495 104.41C212.168 104.41 211.872 104.493 211.605 104.66C211.345 104.827 211.138 105.073 210.985 105.4C210.838 105.72 210.765 106.123 210.765 106.61V111H208.245V102.79H210.765V103.99C210.838 103.783 211.005 103.57 211.265 103.35C211.532 103.13 211.862 102.943 212.255 102.79C212.648 102.63 213.072 102.55 213.525 102.55C214.018 102.55 214.428 102.633 214.755 102.8C215.082 102.967 215.345 103.18 215.545 103.44C215.752 103.693 215.908 103.96 216.015 104.24C216.108 103.98 216.292 103.72 216.565 103.46C216.838 103.2 217.182 102.983 217.595 102.81C218.008 102.637 218.458 102.55 218.945 102.55ZM225.896 107.46C225.916 107.833 226.016 108.167 226.196 108.46C226.376 108.753 226.636 108.983 226.976 109.15C227.323 109.317 227.736 109.4 228.216 109.4C228.649 109.4 229.029 109.347 229.356 109.24C229.689 109.133 229.969 109.003 230.196 108.85C230.429 108.69 230.603 108.537 230.716 108.39L231.766 109.95C231.579 110.183 231.329 110.4 231.016 110.6C230.709 110.793 230.316 110.947 229.836 111.06C229.363 111.18 228.769 111.24 228.056 111.24C227.156 111.24 226.366 111.063 225.686 110.71C225.006 110.357 224.476 109.847 224.096 109.18C223.716 108.513 223.526 107.72 223.526 106.8C223.526 106 223.696 105.28 224.036 104.64C224.376 103.993 224.869 103.483 225.516 103.11C226.169 102.737 226.953 102.55 227.866 102.55C228.726 102.55 229.469 102.717 230.096 103.05C230.729 103.377 231.219 103.857 231.566 104.49C231.913 105.123 232.086 105.897 232.086 106.81C232.086 106.863 232.083 106.973 232.076 107.14C232.076 107.3 232.069 107.407 232.056 107.46H225.896ZM229.706 105.89C229.699 105.677 229.633 105.447 229.506 105.2C229.386 104.953 229.196 104.743 228.936 104.57C228.676 104.397 228.329 104.31 227.896 104.31C227.463 104.31 227.106 104.393 226.826 104.56C226.553 104.727 226.346 104.933 226.206 105.18C226.066 105.42 225.986 105.657 225.966 105.89H229.706ZM239.031 102.55C239.591 102.55 240.138 102.667 240.671 102.9C241.204 103.127 241.641 103.49 241.981 103.99C242.328 104.49 242.501 105.143 242.501 105.95V111H239.951V106.39C239.951 105.717 239.791 105.217 239.471 104.89C239.158 104.563 238.744 104.4 238.231 104.4C237.898 104.4 237.578 104.493 237.271 104.68C236.971 104.86 236.724 105.113 236.531 105.44C236.344 105.76 236.251 106.127 236.251 106.54V111H233.711V102.79H236.251V104.1C236.324 103.873 236.491 103.64 236.751 103.4C237.011 103.16 237.341 102.96 237.741 102.8C238.141 102.633 238.571 102.55 239.031 102.55ZM243.775 102.79H245.255V99.42H247.775V102.79H249.715V104.9H247.775V107.87C247.775 108.263 247.838 108.57 247.965 108.79C248.091 109.003 248.291 109.11 248.565 109.11C248.771 109.11 248.941 109.07 249.075 108.99C249.208 108.903 249.288 108.843 249.315 108.81L250.215 110.63C250.175 110.67 250.045 110.74 249.825 110.84C249.611 110.94 249.335 111.03 248.995 111.11C248.661 111.197 248.285 111.24 247.865 111.24C247.111 111.24 246.488 111.023 245.995 110.59C245.501 110.15 245.255 109.47 245.255 108.55V104.9H243.775V102.79Z" fill="#181A20"/>
</g>
<defs>
<filter id="filter0_d_46_67" x="0" y="0" width="316" height="190" filterUnits="userSpaceOnUse" color-interpolation-filters="sRGB">
<feFlood flood-opacity="0" result="BackgroundImageFix"/>
<feColorMatrix in="SourceAlpha" type="matrix" values="0 0 0 0 0 0 0 0 0 0 0 0 0 0 0 0 0 0 127 0" result="hardAlpha"/>
<feOffset dy="4"/>
<feGaussianBlur stdDeviation="25"/>
<feComposite in2="hardAlpha" operator="out"/>
<feColorMatrix type="matrix" values="0 0 0 0 0 0 0 0 0 0 0 0 0 0 0 0 0 0 0.08 0"/>
<feBlend mode="normal" in2="BackgroundImageFix" result="effect1_dropShadow_46_67"/>
<feBlend mode="normal" in="SourceGraphic" in2="effect1_dropShadow_46_67" result="shape"/>
</filter>
</defs>
</svg>
