<svg width="36" height="36" viewBox="0 0 36 36" fill="none" xmlns="http://www.w3.org/2000/svg">
<g clip-path="url(#clip0_149_3251)">
<path d="M0.569812 36.0007C0.139454 35.7928 -0.00916021 35.4519 0.000700678 34.9771C0.0232399 33.8055 0.00633444 32.6332 0.00844749 31.4617C0.00844749 30.8016 0.29019 30.5184 0.944531 30.5169C1.91301 30.5169 2.88078 30.5169 3.76615 30.5169C3.72671 29.8632 3.65697 29.2383 3.65909 28.6148C3.66261 27.5976 3.60063 26.5613 3.76685 25.5665C4.09226 23.6264 5.23753 22.2399 7.00263 21.3706C7.10547 21.3199 7.20971 21.272 7.31959 21.2205C5.53547 19.2642 6.0412 16.8041 7.34143 15.5297C8.02353 14.8581 8.92274 14.4519 9.87745 14.3839C10.8322 14.316 11.7798 14.5909 12.5501 15.1591C13.982 16.2159 14.8822 18.5477 13.3657 20.8049H14.6279C13.8285 21.0423 13.2192 21.4819 12.8438 22.2315C12.8044 22.3097 12.6367 22.3597 12.5283 22.3611C11.5563 22.371 10.5835 22.366 9.61154 22.3667C7.04349 22.3667 5.20443 24.2054 5.19809 26.7698C5.19809 27.6152 5.19386 28.457 5.19809 29.3003C5.20302 30.0618 5.66367 30.5134 6.43211 30.5169C7.12378 30.5198 7.81499 30.5198 8.50572 30.5169C9.03257 30.5169 9.36784 30.2168 9.37418 29.7575C9.38122 29.282 9.04243 28.9776 8.49727 28.972C8.25145 28.972 8.00422 28.9798 7.75911 28.9678C7.3196 28.9452 7.00193 28.6155 6.99911 28.202C6.99734 28.1019 7.01543 28.0024 7.05233 27.9093C7.08922 27.8162 7.14419 27.7313 7.21407 27.6596C7.28395 27.5878 7.36735 27.5307 7.45945 27.4914C7.55155 27.4521 7.65052 27.4314 7.75065 27.4306C8.1479 27.4179 8.55291 27.3968 8.94241 27.4552C10.3201 27.6624 11.1639 28.9347 10.8611 30.2957C10.8484 30.3521 10.8406 30.4092 10.8251 30.493H29.1178V26.8755H27.2294V25.3446C27.3569 25.339 27.4809 25.3291 27.6056 25.3284C28.4606 25.3284 29.3157 25.3326 30.1708 25.3284C30.8449 25.3235 31.2161 24.9536 31.2175 24.2829C31.2175 22.2096 31.2273 20.1356 31.2175 18.0616C31.2069 16.2948 29.8862 14.8914 28.1233 14.8329C26.5906 14.7843 25.0544 14.7907 23.521 14.8329C22.0849 14.8703 20.9417 15.8051 20.5395 17.1916C20.2169 18.3042 19.9047 19.4192 19.6027 20.5365C19.5408 20.7633 19.4527 20.8669 19.1984 20.8514C18.792 20.8267 18.3821 20.8443 17.9363 20.8443C17.9567 20.7267 17.9637 20.64 17.987 20.5576C18.33 19.3297 18.6681 18.1004 19.0202 16.8753C19.5767 14.9407 20.8706 13.7882 22.8089 13.3268C22.8089 13.3063 22.8188 13.276 22.8089 13.2626C22.0342 12.2912 21.7454 11.1724 21.8081 9.94592C21.8531 9.07095 21.7834 8.17343 21.9567 7.32523C22.3884 5.21177 24.4761 3.78095 26.6159 4.02823C28.7558 4.2755 30.4194 6.09378 30.4497 8.24036C30.4575 8.79126 30.4497 9.34217 30.4497 9.89238C30.4497 11.6064 30.3152 12.0333 29.3164 13.4416C29.4277 13.4853 29.5312 13.5289 29.6355 13.5677C30.5439 13.9004 31.3296 14.5018 31.888 15.292C32.4464 16.0821 32.751 17.0236 32.7614 17.9912C32.779 20.1236 32.7713 22.2561 32.7614 24.3886C32.7649 24.9264 32.5928 25.4506 32.2713 25.8816C31.9498 26.3127 31.4965 26.627 30.9801 26.7768C30.8089 26.829 30.6871 26.8635 30.6892 27.0875C30.6998 28.1766 30.6948 29.2665 30.6969 30.3563C30.7025 30.4127 30.7124 30.4685 30.7265 30.5233H31.6718C32.7734 30.5233 33.8743 30.5388 34.9752 30.5155C35.4499 30.5057 35.7908 30.6564 35.9979 31.0855V35.4448L35.4344 36.0084L0.569812 36.0007ZM1.5559 34.4297H34.4251V32.0823H1.56788C1.56295 32.1528 1.5552 32.2098 1.5552 32.2655C1.55449 32.9777 1.55449 33.6914 1.55449 34.4297H1.5559ZM12.6086 18.3906C12.6123 18.0677 12.5523 17.7472 12.432 17.4475C12.3117 17.1478 12.1335 16.8748 11.9076 16.644C11.6817 16.4133 11.4125 16.2294 11.1155 16.1029C10.8184 15.9763 10.4993 15.9096 10.1764 15.9066C9.52481 15.9066 8.89968 16.1646 8.43773 16.6243C7.97577 17.084 7.71456 17.7079 7.71121 18.3596C7.70875 19.0055 7.96158 19.6262 8.41463 20.0864C8.86768 20.5467 9.48423 20.8092 10.1299 20.8169C10.4523 20.8219 10.7725 20.763 11.072 20.6434C11.3714 20.5239 11.6442 20.3462 11.8746 20.1206C12.1049 19.895 12.2883 19.6259 12.414 19.329C12.5398 19.032 12.6054 18.7131 12.6071 18.3906H12.6086ZM28.879 9.81348H23.3738C23.121 12.1587 24.7572 13.2655 26.1546 13.2577C27.552 13.25 29.1572 12.108 28.8797 9.81348H28.879ZM23.39 8.21217H28.8839C28.8692 6.71514 27.5767 5.51962 26.0327 5.55273C24.6015 5.58303 23.3421 6.84265 23.3907 8.21217H23.39Z" fill="#5183F4"/>
<path d="M15.8169 10.8933C15.8169 11.3576 15.8169 11.7669 15.8169 12.1762C15.8169 12.5186 15.7056 12.7982 15.3943 12.9666C15.0935 13.1294 14.8111 13.0624 14.5364 12.8828C13.5954 12.2685 12.6551 11.6535 11.7056 11.0511C11.5494 10.9556 11.3709 10.9029 11.1879 10.8982C10.111 10.8849 9.0333 10.894 7.95564 10.8912C5.91303 10.8856 4.51771 9.48223 4.51349 7.43922C4.51349 6.10351 4.51349 4.76804 4.51349 3.4328C4.51842 1.38979 5.91374 -0.00298556 7.9648 -0.00439453C10.8578 -0.00439453 13.7506 -0.00439453 16.6431 -0.00439453C18.6758 -0.00439453 20.0606 1.37077 20.0726 3.40885C20.081 4.76757 20.081 6.12629 20.0726 7.48501C20.0578 9.49984 18.6702 10.8785 16.6621 10.8877C16.3923 10.8947 16.1254 10.8933 15.8169 10.8933ZM14.2673 10.8609C14.2673 10.5862 14.2673 10.3995 14.2673 10.2121C14.2758 9.63651 14.5582 9.3526 15.1351 9.34767C15.6507 9.34344 16.1662 9.34767 16.6846 9.34767C17.7975 9.34063 18.516 8.64318 18.5216 7.52939C18.5315 6.14719 18.5315 4.76475 18.5216 3.38208C18.5145 2.24292 17.8088 1.55041 16.6692 1.55041C13.7527 1.55041 10.8362 1.55041 7.91972 1.55041C6.77374 1.55041 6.06236 2.26617 6.05954 3.418C6.05672 4.76498 6.05672 6.1122 6.05954 7.45965C6.05954 8.63121 6.77163 9.34556 7.93874 9.34838C9.10585 9.3512 10.2821 9.33147 11.4527 9.36106C11.7617 9.3772 12.0623 9.46758 12.3289 9.62453C12.9741 9.9951 13.5876 10.4199 14.2708 10.8609H14.2673Z" fill="#5183F4"/>
<path d="M27.2569 23.7131C27.1914 23.1883 27.1315 22.7071 27.066 22.1837H27.9049C27.9049 21.3221 27.8979 20.5056 27.9049 19.6891C27.9013 19.5117 27.9603 19.3387 28.0714 19.2003C28.1825 19.062 28.3388 18.9672 28.5128 18.9325C28.6806 18.8988 28.8548 18.9221 29.0079 18.9987C29.161 19.0753 29.2842 19.2007 29.358 19.3552C29.4105 19.4726 29.439 19.5993 29.4418 19.7279C29.4481 20.7923 29.4538 21.8568 29.4418 22.9213C29.4369 23.3616 29.1875 23.6758 28.7882 23.704C28.2817 23.7399 27.7676 23.7131 27.2569 23.7131Z" fill="#5183F4"/>
<path d="M21.4312 20.8372C21.5763 20.33 21.6883 19.8777 21.8369 19.4381C21.8961 19.2515 22.0258 19.0954 22.1985 19.0033C22.3712 18.9111 22.5731 18.8902 22.761 18.945C23.1681 19.0633 23.3949 19.4452 23.3034 19.8714C23.1047 20.8358 23.1047 20.8358 22.1158 20.8358L21.4312 20.8372Z" fill="#5183F4"/>
<path d="M27.2309 22.719V30.4909H26.1427V22.719C26.1415 22.6065 26.1181 22.4954 26.0739 22.392C26.0296 22.2886 25.9655 22.195 25.885 22.1164C25.8045 22.0379 25.7093 21.976 25.6048 21.9343C25.5004 21.8927 25.3887 21.872 25.2763 21.8736H14.5617C14.4493 21.8721 14.3377 21.8928 14.2333 21.9345C14.1289 21.9762 14.0338 22.0381 13.9533 22.1166C13.8728 22.1951 13.8086 22.2888 13.7644 22.3921C13.7201 22.4955 13.6967 22.6066 13.6954 22.719V30.4909H12.6072V22.719C12.6072 21.6686 13.482 20.8169 14.5617 20.8169H25.2763C26.3561 20.8169 27.2309 21.6686 27.2309 22.719Z" fill="#5183F4"/>
<path d="M10.1032 5.83086C10.4887 5.83086 10.8012 5.51829 10.8012 5.13272C10.8012 4.74714 10.4887 4.43457 10.1032 4.43457C9.71766 4.43457 9.40515 4.74714 9.40515 5.13272C9.40515 5.51829 9.71766 5.83086 10.1032 5.83086Z" fill="#5183F4"/>
<path d="M12.2944 5.83086C12.6799 5.83086 12.9925 5.51829 12.9925 5.13272C12.9925 4.74714 12.6799 4.43457 12.2944 4.43457C11.9089 4.43457 11.5964 4.74714 11.5964 5.13272C11.5964 5.51829 11.9089 5.83086 12.2944 5.83086Z" fill="#5183F4"/>
<path d="M14.4857 5.83086C14.8712 5.83086 15.1837 5.51829 15.1837 5.13272C15.1837 4.74714 14.8712 4.43457 14.4857 4.43457C14.1002 4.43457 13.7877 4.74714 13.7877 5.13272C13.7877 5.51829 14.1002 5.83086 14.4857 5.83086Z" fill="#5183F4"/>
</g>
<defs>
<clipPath id="clip0_149_3251">
<rect width="36" height="36" fill="white"/>
</clipPath>
</defs>
</svg>
