<svg width="36" height="36" viewBox="0 0 36 36" fill="none" xmlns="http://www.w3.org/2000/svg">
<g clip-path="url(#clip0_149_3152)">
<path d="M35.5782 9.63305C35.5477 9.66911 35.5166 9.70377 35.484 9.73983C34.8831 10.3855 34.2476 10.9994 33.6148 11.6154C33.4605 11.7646 33.4173 11.8848 33.4966 12.1005C36.3801 19.9902 33.2135 28.4492 25.8525 32.4357C22.8091 34.0864 19.5341 34.6627 16.0851 34.2519C14.7872 34.1033 13.5137 33.7893 12.2956 33.3176C12.0543 33.2236 11.9177 33.2808 11.7499 33.4527C11.0846 34.1352 10.4052 34.8056 9.72993 35.4767C8.93579 36.2646 8.00223 36.1627 7.25268 35.1656C5.42306 32.7278 3.19991 30.6231 0.804772 28.737C-0.1748 27.9654 -0.266812 27.0595 0.521659 26.2674C1.20184 25.5842 1.8799 24.899 2.57423 24.2271C2.63777 24.1646 2.68187 24.0851 2.70121 23.9981C2.72055 23.9112 2.71431 23.8205 2.68323 23.737C0.236425 17.0786 2.09365 9.95766 7.48059 5.33814C8.52937 4.44389 9.69081 3.69067 10.9353 3.09769C11.3932 2.87774 11.8087 2.98453 11.997 3.36572C12.1852 3.74691 12.0239 4.13941 11.5588 4.36643C9.00162 5.61749 6.91719 7.41593 5.41245 9.82824C2.89911 13.8551 2.38242 18.1536 3.81427 22.6818C3.82843 22.7264 3.84612 22.7695 3.86452 22.8127C3.86452 22.8219 3.8808 22.8282 3.92893 22.8693C4.07686 22.7222 4.23115 22.5708 4.38404 22.4188C4.90921 21.8947 5.42377 21.3579 5.9631 20.8516C6.15845 20.667 6.1995 20.498 6.15279 20.2377C5.47402 16.4188 6.31416 12.9711 8.84732 10.0312C11.6077 6.8247 15.1756 5.46544 19.3933 5.83389C19.6502 5.85652 19.9213 5.85582 20.1598 5.93927C20.6156 6.09839 20.9122 5.94705 21.2215 5.60829C21.8019 4.97746 22.4304 4.39047 23.1007 3.72357C22.5854 3.57435 22.1353 3.42725 21.6759 3.3148C20.3714 2.99545 19.0302 2.85039 17.6875 2.8834C17.2147 2.89401 16.9231 2.65921 16.8792 2.27166C16.8269 1.80773 17.1305 1.48736 17.6437 1.47322C19.755 1.40887 21.8585 1.75845 23.8353 2.50221C24.1185 2.60829 24.2735 2.5602 24.4688 2.36077C25.0895 1.7172 25.7195 1.08071 26.3678 0.465436L26.3784 0.455536C26.9998 -0.125793 27.9575 -0.142767 28.6299 0.377742C28.7021 0.432946 28.7708 0.49246 28.8358 0.55596C31.0621 2.75634 33.276 4.96874 35.4777 7.19316C35.5003 7.21579 35.523 7.23913 35.5442 7.26388C35.8309 7.59025 35.9918 8.00801 35.998 8.44221C36.0042 8.8764 35.8554 9.2986 35.5782 9.63305ZM27.5555 1.35865L1.53804 27.3551L8.63569 34.4478L34.6517 8.45624L27.5555 1.35865ZM32.2806 12.952C31.5976 13.6345 30.9514 14.3014 30.2783 14.9407C30.0469 15.1599 29.9909 15.365 30.0504 15.6734C30.4051 17.4686 30.3363 19.3217 29.8494 21.0857C28.1734 27.1882 22.2818 30.9562 16.037 29.9011C15.5493 29.8183 15.2641 29.9159 14.9477 30.2589C14.3694 30.8869 13.7445 31.4732 13.1294 32.0885C17.2643 33.696 23.6357 33.3572 28.3793 28.9145C33.2758 24.3261 34.0557 17.7151 32.2806 12.9548V12.952ZM19.4563 7.27307C11.9913 6.32258 6.39343 12.9499 7.46856 19.2483L19.4563 7.27307ZM16.7448 28.5715C24.2777 29.5178 29.8147 22.7879 28.7183 16.6097L16.7448 28.5715Z" fill="#5183F4"/>
<path d="M13.7013 2.61468C13.6984 2.43029 13.7689 2.25229 13.8972 2.11972C14.0255 1.98715 14.2011 1.91082 14.3857 1.90747C14.5762 1.90841 14.7586 1.98479 14.8929 2.11988C15.0271 2.25496 15.1023 2.43773 15.102 2.62812C15.0953 2.81222 15.0171 2.98647 14.8838 3.11379C14.7506 3.24112 14.5729 3.31147 14.3885 3.30987C14.2976 3.30979 14.2075 3.29168 14.1236 3.25661C14.0397 3.22154 13.9636 3.17019 13.8997 3.10554C13.8358 3.04089 13.7854 2.96422 13.7513 2.87997C13.7172 2.79571 13.7002 2.70555 13.7013 2.61468Z" fill="#5183F4"/>
<path d="M9.55934 26.3181C10.0442 26.8012 10.4752 27.2276 10.9041 27.6576C11.0849 27.8254 11.2542 28.0052 11.4109 28.1958C11.5082 28.3306 11.5535 28.4961 11.5384 28.6616C11.5233 28.8272 11.4489 28.9817 11.3288 29.0968C11.2101 29.213 11.0537 29.283 10.8879 29.2943C10.7221 29.3056 10.5577 29.2574 10.4243 29.1583C10.3485 29.1014 10.2775 29.0385 10.2119 28.9702C9.15543 27.9155 8.09918 26.8603 7.04317 25.8047C6.69635 25.4575 6.62416 25.1505 6.80394 24.833C6.97522 24.531 7.27391 24.4306 7.72972 24.5154C8.79234 24.7135 9.85519 24.9096 10.9183 25.1038C10.9491 25.1079 10.9802 25.1079 11.011 25.1038C10.4703 24.5416 9.90403 23.9808 9.37673 23.3853C9.22102 23.2099 9.07734 22.9228 9.10848 22.7128C9.13962 22.5027 9.36258 22.2778 9.56146 22.1583C9.83396 21.9942 10.1079 22.1399 10.3237 22.35C10.9551 22.9662 11.5848 23.5836 12.2128 24.2021C12.641 24.6222 13.0714 25.0395 13.4982 25.4603C13.869 25.8259 13.9596 26.1512 13.7926 26.4949C13.6199 26.8485 13.3021 26.9744 12.7621 26.8768C11.8023 26.7036 10.844 26.5232 9.88492 26.345C9.80848 26.3316 9.7285 26.3316 9.55934 26.3181Z" fill="#5183F4"/>
<path d="M14.9243 24.2214C14.515 24.2259 14.1088 24.1495 13.7292 23.9963C13.3496 23.8432 13.0042 23.6164 12.7128 23.3291C12.4214 23.0419 12.1898 22.6997 12.0315 22.3226C11.8732 21.9454 11.7912 21.5406 11.7903 21.1315C11.7848 20.7224 11.8605 20.3162 12.0129 19.9364C12.1653 19.5567 12.3914 19.2107 12.6782 18.9187C12.965 18.6266 13.3068 18.3941 13.6839 18.2346C14.061 18.0751 14.466 17.9918 14.8755 17.9894C15.2881 17.9829 15.698 18.0587 16.081 18.2122C16.464 18.3658 16.8125 18.5941 17.1062 18.8839C17.4 19.1736 17.6329 19.5189 17.7915 19.8996C17.9502 20.2803 18.0313 20.6888 18.0301 21.1011C18.0328 21.5102 17.9544 21.9158 17.7995 22.2945C17.6446 22.6731 17.4162 23.0174 17.1275 23.3075C16.8388 23.5976 16.4955 23.8276 16.1173 23.9845C15.7392 24.1413 15.3337 24.2218 14.9243 24.2214ZM16.6145 21.1047C16.6154 20.8812 16.5722 20.6597 16.4872 20.453C16.4023 20.2462 16.2773 20.0583 16.1195 19.8999C15.9617 19.7416 15.7741 19.6159 15.5675 19.5302C15.361 19.4444 15.1395 19.4003 14.9158 19.4003C14.6923 19.3977 14.4705 19.4394 14.2633 19.523C14.056 19.6066 13.8674 19.7304 13.7084 19.8874C13.5493 20.0443 13.423 20.2312 13.3368 20.4372C13.2505 20.6433 13.206 20.8644 13.2058 21.0877C13.2008 21.3142 13.2417 21.5394 13.3259 21.7498C13.4101 21.9601 13.5359 22.1513 13.6959 22.312C13.8558 22.4726 14.0465 22.5992 14.2567 22.6844C14.4668 22.7696 14.6919 22.8115 14.9187 22.8076C15.1423 22.8085 15.3639 22.765 15.5706 22.6796C15.7773 22.5942 15.965 22.4687 16.1227 22.3102C16.2805 22.1518 16.4052 21.9637 16.4896 21.7567C16.574 21.5498 16.6165 21.3281 16.6145 21.1047Z" fill="#5183F4"/>
<path d="M23.565 13.4287L24.3343 14.1465C24.5728 13.8855 24.817 13.6026 25.0782 13.3367C25.4689 12.94 25.8745 12.8997 26.1923 13.2087C26.51 13.5178 26.4754 13.9329 26.0917 14.3233C25.6784 14.7412 25.2636 15.1592 24.8425 15.5701C24.461 15.9414 24.0767 15.9428 23.7001 15.5701C22.6149 14.4923 21.5324 13.411 20.4528 12.3261C20.077 11.9485 20.0784 11.5644 20.4486 11.1861C20.8766 10.7481 21.3095 10.3155 21.7474 9.88835C22.1013 9.54535 22.5146 9.5305 22.809 9.83318C23.1035 10.1359 23.0787 10.5404 22.7383 10.8982C22.6 11.0425 22.4585 11.184 22.3136 11.3226C22.177 11.452 22.034 11.5743 21.8719 11.72L22.6618 12.4237C22.8586 12.2115 23.0865 11.9414 23.3335 11.6953C23.6761 11.3551 24.1029 11.3353 24.3952 11.6246C24.6875 11.9138 24.6691 12.3431 24.3322 12.6889C24.0958 12.9329 23.8424 13.162 23.565 13.4287Z" fill="#5183F4"/>
<path d="M26.7457 10.2092L27.5243 10.961C27.8074 10.6534 28.0905 10.321 28.4034 10.0261C28.7926 9.66044 29.3405 9.77006 29.5464 10.2297C29.6099 10.3573 29.6304 10.502 29.6048 10.6422C29.5793 10.7824 29.5092 10.9106 29.4049 11.0077C28.9377 11.4886 28.4678 11.9667 27.9822 12.4292C27.6581 12.7382 27.2745 12.7248 26.946 12.4023C25.8353 11.3019 24.729 10.1967 23.6272 9.08689C23.2811 8.73753 23.2903 8.35775 23.6393 7.9999C24.0739 7.55389 24.5146 7.11329 24.9614 6.67812C25.299 6.34927 25.6989 6.33159 25.9976 6.61376C26.2963 6.89594 26.3013 7.32663 25.9615 7.67458C25.6784 7.96666 25.3663 8.23611 25.0619 8.52324L25.8228 9.28632C26.0641 9.01829 26.2892 8.74743 26.5369 8.49849C26.8767 8.1569 27.3056 8.1371 27.5986 8.42777C27.8916 8.71843 27.8768 9.15054 27.5377 9.48859C27.2907 9.73753 27.0161 9.96313 26.7457 10.2092Z" fill="#5183F4"/>
<path d="M18.7329 14.8473L19.4293 15.5877C19.6665 15.3289 19.8774 15.0764 20.1116 14.8473C20.4408 14.5241 20.8598 14.5092 21.1493 14.7886C21.4387 15.0679 21.4324 15.5121 21.1018 15.8494C20.881 16.0771 20.6439 16.2893 20.3728 16.5474C20.7706 16.9414 21.1514 17.3027 21.5116 17.679C21.6462 17.8084 21.7476 17.9683 21.8075 18.145C21.8931 18.4619 21.7565 18.7285 21.4727 18.8897C21.174 19.0595 20.8761 19.0192 20.6283 18.7815C20.2461 18.4152 19.876 18.0354 19.5015 17.6613C18.7853 16.9465 18.0692 16.2313 17.3534 15.5156C16.9033 15.0644 16.9004 14.7193 17.3407 14.2745C17.7215 13.8907 18.1041 13.5081 18.4887 13.1266C18.8709 12.749 19.2977 12.7108 19.6042 13.0206C19.9106 13.3303 19.8653 13.7518 19.4824 14.1351C19.2411 14.382 18.987 14.609 18.7329 14.8473Z" fill="#5183F4"/>
</g>
<defs>
<clipPath id="clip0_149_3152">
<rect width="36" height="36" fill="white"/>
</clipPath>
</defs>
</svg>
