<svg width="36" height="36" viewBox="0 0 36 36" fill="none" xmlns="http://www.w3.org/2000/svg">
<path d="M28.8311 35.9996H7.19333C6.70769 36.0042 6.23145 35.8591 5.8237 35.5822C5.18444 35.1384 5 34.5717 5 33.4517C5 24.4937 5 15.536 5 6.57857C5 5.2121 5.82222 4.34698 7.1163 4.3462C9.02444 4.3462 13.103 4.3462 13.2719 4.3462C13.2719 3.73215 13.2674 3.15385 13.2719 2.57555C13.2867 0.937806 14.1807 0.00506227 15.7363 0.00506227C17.2499 0.000916744 18.7637 0.000916744 20.2778 0.00506227C20.4498 0.00316551 20.6215 0.0216805 20.7896 0.0602513C21.3405 0.189006 21.833 0.511313 22.1855 0.973818C22.5381 1.43632 22.7295 2.01129 22.7281 2.60353C22.7281 3.17872 22.7281 3.75469 22.7281 4.34698C22.9178 4.34698 26.977 4.34698 28.8719 4.34698C29.0561 4.34204 29.2402 4.35715 29.4215 4.39206C29.9074 4.48735 30.3381 4.77974 30.62 5.20588C30.8718 5.58972 31.0045 6.04577 31 6.51172V34.2919C31 34.3013 30.9948 34.3098 30.9926 34.3184C30.8533 34.8057 30.5675 35.2327 30.178 35.5357C29.7885 35.8387 29.316 36.0015 28.8311 35.9996ZM6.18074 20.1321V33.667C6.18074 34.4964 6.42963 34.7552 7.21778 34.7552H28.7807C29.5681 34.7552 29.8178 34.4925 29.8178 33.667C29.8178 24.6702 29.8178 15.6731 29.8178 6.67573C29.8178 5.84248 29.5741 5.58753 28.7807 5.58753C21.5931 5.58753 14.4054 5.58753 7.21778 5.58753C6.42519 5.58753 6.18074 5.84248 6.18074 6.67573V20.1321ZM21.5363 4.32833C21.5363 3.621 21.5652 2.93776 21.5274 2.25841C21.4933 1.63658 21.1074 1.2596 20.5096 1.25261C18.8622 1.23499 17.2146 1.23499 15.5667 1.25261C14.9837 1.25882 14.4985 1.65757 14.4726 2.15348C14.4356 2.87092 14.463 3.59146 14.463 4.32988L21.5363 4.32833Z" fill="#5183F4"/>
<path d="M13.863 28.8429C13.8642 29.5803 13.589 30.2886 13.0967 30.8148C12.6044 31.341 11.9345 31.6428 11.2319 31.6551C10.8805 31.6565 10.5322 31.5853 10.2071 31.4454C9.88192 31.3055 9.58624 31.0997 9.33692 30.8398C9.08761 30.58 8.88956 30.2711 8.75409 29.9308C8.61862 29.5906 8.5484 29.2256 8.54742 28.8569C8.54936 28.1193 8.82873 27.4124 9.32478 26.8898C9.82083 26.3672 10.4934 26.0713 11.1963 26.0664C11.8996 26.0678 12.5739 26.3601 13.0731 26.8799C13.5724 27.3996 13.8562 28.105 13.863 28.8429ZM11.2126 27.3108C11.0187 27.3071 10.8261 27.344 10.6459 27.4194C10.4658 27.4947 10.3018 27.607 10.1635 27.7496C10.0252 27.8923 9.91538 28.0625 9.84051 28.2502C9.76564 28.4379 9.72719 28.6394 9.72742 28.8429C9.72282 29.0495 9.75799 29.255 9.83083 29.447C9.90367 29.6391 10.0127 29.8137 10.1513 29.9605C10.29 30.1073 10.4554 30.2233 10.6378 30.3014C10.8202 30.3796 11.0157 30.4183 11.2126 30.4153C11.4066 30.4155 11.5987 30.3754 11.7778 30.2972C11.9569 30.2189 12.1194 30.1042 12.2559 29.9596C12.3925 29.815 12.5003 29.6435 12.5733 29.4548C12.6462 29.2662 12.6827 29.0643 12.6808 28.8608C12.6829 28.6574 12.6465 28.4556 12.5736 28.2671C12.5007 28.0787 12.3928 27.9073 12.2561 27.763C12.1195 27.6188 11.9568 27.5045 11.7777 27.4269C11.5985 27.3492 11.4064 27.3098 11.2126 27.3108Z" fill="#5183F4"/>
<path d="M21.5356 26.6906H27.2215C27.3322 26.6842 27.4432 26.6876 27.5533 26.7007C27.8615 26.7559 28.0252 26.9603 28.043 27.2853C28.0565 27.4354 28.0142 27.5851 27.9248 27.7032C27.8355 27.8213 27.7061 27.8985 27.5637 27.9187C27.4408 27.9331 27.3169 27.9373 27.1933 27.9312H15.8244C15.7378 27.9312 15.6519 27.9351 15.5659 27.9312C15.2089 27.9047 14.983 27.6669 14.9785 27.3171C14.9741 26.9673 15.2007 26.7217 15.5548 26.6953C15.6533 26.6883 15.7519 26.6953 15.8511 26.6953L21.5356 26.6906Z" fill="#5183F4"/>
<path d="M21.5141 13.0353C19.5837 13.0353 17.6531 13.0353 15.7222 13.0353C15.42 13.0353 15.1578 12.9848 15.0296 12.6466C14.9931 12.5611 14.9759 12.4678 14.9795 12.3741C14.9832 12.2804 15.0075 12.1889 15.0506 12.1068C15.0937 12.0246 15.1544 11.9541 15.2279 11.9008C15.3013 11.8474 15.3856 11.8127 15.4741 11.7994C15.5724 11.7878 15.6715 11.7844 15.7704 11.7893H27.2052C27.3157 11.7832 27.4265 11.7876 27.5363 11.8025C27.8452 11.8624 28.0007 12.0785 28.0193 12.3971C28.0271 12.5474 27.9803 12.6951 27.8883 12.8106C27.7963 12.926 27.666 13.0005 27.5237 13.019C27.4137 13.0309 27.3031 13.0343 27.1926 13.0291L21.5141 13.0353Z" fill="#5183F4"/>
<path d="M21.5489 19.2396C23.4669 19.2396 25.3847 19.2396 27.3022 19.2396C27.6222 19.2396 27.8904 19.3065 28.003 19.6679C28.031 19.7503 28.0417 19.8381 28.0343 19.9252C28.027 20.0124 28.0019 20.0969 27.9606 20.1729C27.9193 20.2489 27.8629 20.3146 27.7951 20.3657C27.7274 20.4167 27.65 20.4518 27.5682 20.4685C27.4833 20.4833 27.3971 20.4888 27.3111 20.4848C23.4511 20.4848 19.5904 20.4895 15.7304 20.4732C15.5156 20.4732 15.2282 20.3542 15.1022 20.1856C14.8059 19.7899 15.1022 19.259 15.6104 19.2458C16.2126 19.2311 16.8156 19.2412 17.4178 19.2412L21.5489 19.2396Z" fill="#5183F4"/>
<path d="M22.4667 30.4144C20.8558 30.4144 19.2447 30.4144 17.6334 30.4144C17.1956 30.4144 16.9667 30.217 16.9452 29.8385C16.9237 29.4747 17.1282 29.2167 17.4763 29.1793C17.5621 29.1727 17.6482 29.1712 17.7341 29.1747C20.9074 29.1747 24.0808 29.1765 27.2541 29.1801C27.4422 29.1801 27.6985 29.1949 27.8022 29.3154C27.9443 29.4963 28.017 29.7263 28.0059 29.9605C27.9822 30.2613 27.7408 30.4106 27.4482 30.4129C26.9437 30.4183 26.44 30.4129 25.9356 30.4129L22.4667 30.4144Z" fill="#5183F4"/>
<path d="M22.5148 15.5156H17.7874C17.6637 15.5245 17.5394 15.5183 17.4171 15.497C17.1148 15.4192 16.9578 15.2039 16.9659 14.8751C16.9741 14.5463 17.14 14.3435 17.4482 14.2844C17.5582 14.2697 17.6693 14.2655 17.78 14.272H27.237C27.3359 14.2681 27.4349 14.271 27.5333 14.2805C27.6766 14.2934 27.8095 14.364 27.9042 14.4774C27.9989 14.5909 28.0481 14.7384 28.0415 14.8891C28.0333 15.2311 27.863 15.4457 27.5378 15.5032C27.4279 15.5163 27.3171 15.5197 27.2067 15.5133L22.5148 15.5156Z" fill="#5183F4"/>
<path d="M22.5015 22.9666C20.903 22.9666 19.3039 22.9666 17.7044 22.9666C17.2733 22.9666 17.0481 22.8018 16.9852 22.459C16.9702 22.3797 16.9704 22.298 16.9857 22.2187C17.001 22.1395 17.0312 22.0642 17.0743 21.9972C17.1175 21.9302 17.1729 21.8728 17.2373 21.8284C17.3017 21.784 17.3739 21.7534 17.4496 21.7385C17.5348 21.7264 17.6208 21.7225 17.7067 21.7268C20.9052 21.7268 24.1034 21.7268 27.3015 21.7268C27.8133 21.7268 28.1022 22.0268 28.02 22.4606C27.9541 22.8057 27.7333 22.9658 27.2993 22.9658C25.6997 22.9679 24.1005 22.9681 22.5015 22.9666Z" fill="#5183F4"/>
<path d="M18.0111 7.44697C19.3645 7.44697 20.7178 7.44697 22.0711 7.44697C22.5563 7.44697 22.8371 7.80219 22.7126 8.24447C22.6119 8.60202 22.3482 8.68907 22.0215 8.6883C19.6467 8.68415 17.2721 8.68415 14.8978 8.6883C14.5652 8.6883 14.2311 8.69685 13.9008 8.6883C13.5222 8.67508 13.2815 8.42169 13.2859 8.06647C13.2904 7.71125 13.5282 7.45863 13.9134 7.4563C15.2793 7.44308 16.6452 7.44775 18.0111 7.44697Z" fill="#5183F4"/>
<path d="M10.8852 20.874L13.2437 18.3922C13.3191 18.3069 13.3992 18.2265 13.4837 18.1512C13.6002 18.0431 13.7524 17.987 13.9077 17.9949C14.0631 18.0027 14.2094 18.0739 14.3155 18.1932C14.5378 18.4264 14.5378 18.7466 14.3066 19.0272C14.1452 19.2215 13.9637 19.398 13.7881 19.5806C13.0128 20.3932 12.2387 21.2054 11.4659 22.0174C11.0385 22.4636 10.7763 22.4605 10.3429 22.0065C9.81998 21.4604 9.2985 20.9119 8.7785 20.361C8.46442 20.0276 8.44146 19.6887 8.69998 19.412C8.9585 19.1352 9.29257 19.1477 9.60294 19.4773C10.0266 19.9242 10.4378 20.3851 10.8852 20.874Z" fill="#5183F4"/>
<path d="M10.8918 13.4021C11.7118 12.5471 12.4867 11.734 13.2622 10.9241C13.3436 10.8273 13.4345 10.7398 13.5333 10.6629C13.7896 10.4881 14.0518 10.4919 14.2741 10.7205C14.4963 10.949 14.5311 11.2498 14.3415 11.5273C14.218 11.6879 14.0825 11.8379 13.9363 11.9758C13.1116 12.8438 12.2842 13.7112 11.4541 14.5781C11.0437 15.0072 10.7733 15.0072 10.357 14.5719C9.84098 14.0356 9.32691 13.4972 8.81481 12.9567C8.4837 12.6062 8.45259 12.2572 8.71851 11.9773C8.98444 11.6975 9.31999 11.7263 9.6511 12.0737C10.0593 12.5028 10.46 12.9388 10.8918 13.4021Z" fill="#5183F4"/>
</svg>
