<svg width="36" height="36" viewBox="0 0 36 36" fill="none" xmlns="http://www.w3.org/2000/svg">
<g clip-path="url(#clip0_149_3231)">
<path d="M25.8695 36.0002C25.5268 35.9245 25.1817 35.856 24.8406 35.7715C23.4163 35.4247 22.1298 34.6411 21.1536 33.5259C21.0793 33.4365 20.9855 33.3661 20.8797 33.3205C20.7739 33.2749 20.6591 33.2554 20.5446 33.2635C15.4216 33.2688 10.2989 33.2702 5.17643 33.2675C3.23837 33.2675 2.00306 32.0211 2.00227 30.0388C1.99859 21.1091 1.99859 12.1792 2.00227 3.24896C2.00227 1.24252 3.23128 0.000976562 5.19849 0.000976562C11.9848 0.000976562 18.7712 0.000976562 25.5575 0.000976562C27.0954 0.000976562 28.27 0.930927 28.5757 2.39953C28.6269 2.7028 28.6478 3.01061 28.638 3.31821C28.6411 9.11531 28.6395 14.9124 28.6332 20.7095C28.6332 21.0396 28.7167 21.1926 29.0405 21.3013C32.1272 22.3705 34.1433 25.3842 33.992 28.6676C33.8345 32.1081 31.5419 35.0114 28.3591 35.7973C28.0305 35.8778 27.6957 35.9325 27.3632 35.9994L25.8695 36.0002ZM27.3822 20.8786V20.4503C27.3822 14.7186 27.3822 8.98702 27.3822 3.2554C27.3822 1.94864 26.7275 1.28681 25.4433 1.28681H5.19613C3.91985 1.28681 3.25964 1.9575 3.25964 3.26506C3.25964 12.184 3.25964 21.103 3.25964 30.0219C3.25964 31.3045 3.92615 31.9817 5.17407 31.9825H20.0364C17.2735 26.7788 21.6657 20.1459 27.3822 20.8786ZM31.393 24.5654L22.6954 33.2345C24.9415 35.2329 28.697 35.3134 31.0786 32.7449C33.4429 30.1942 33.0758 26.4817 31.393 24.5654ZM21.8209 32.3061L30.524 23.6387C28.3031 21.6644 24.8792 21.4808 22.3818 23.9374C19.9151 26.3633 19.8828 29.8794 21.8209 32.3061Z" fill="#5183F4"/>
<path d="M15.4805 12.5387H6.40158C6.27025 12.544 6.13873 12.5416 6.00767 12.5314C5.66575 12.492 5.41443 12.2094 5.4357 11.8825C5.45776 11.5298 5.65787 11.3189 5.99664 11.2609C6.10127 11.2491 6.20672 11.2467 6.31177 11.2537C12.4311 11.2537 18.5499 11.2537 24.6682 11.2537C24.7997 11.2428 24.9321 11.2493 25.0621 11.273C25.3772 11.3575 25.5623 11.5717 25.5537 11.9107C25.545 12.2496 25.3536 12.4558 25.0353 12.5242C24.9048 12.5425 24.7728 12.5473 24.6414 12.5387H15.4805Z" fill="#5183F4"/>
<path d="M15.5026 7.70458H24.5823C24.7136 7.70008 24.8451 7.7025 24.9762 7.71182C25.3252 7.75047 25.5277 7.95981 25.5497 8.31166C25.571 8.64902 25.3922 8.86963 25.077 8.95578C24.9492 8.98343 24.8183 8.99372 24.6879 8.98638C18.5564 8.98638 12.4248 8.98638 6.29285 8.98638C6.14965 8.99189 6.00645 8.97505 5.86821 8.93646C5.73235 8.90118 5.61397 8.81601 5.53564 8.6972C5.45732 8.57839 5.42455 8.43427 5.44358 8.29234C5.47194 7.96384 5.66338 7.7545 5.99506 7.71182C6.12605 7.7005 6.2576 7.69727 6.38897 7.70216L15.5026 7.70458Z" fill="#5183F4"/>
<path d="M15.4986 16.0861H6.37953C6.24816 16.091 6.11661 16.0878 5.98562 16.0764C5.83836 16.0693 5.69932 16.005 5.59685 15.8967C5.49437 15.7884 5.43618 15.6442 5.43414 15.4935C5.41544 15.3516 5.44892 15.2077 5.5281 15.0896C5.60727 14.9715 5.72651 14.8876 5.86272 14.8542C6.0141 14.814 6.17044 14.7966 6.32675 14.8027C12.4324 14.8027 18.5376 14.8027 24.6422 14.8027C24.7859 14.7958 24.93 14.8077 25.0708 14.8381C25.3859 14.9243 25.5647 15.1497 25.5435 15.4863C25.5198 15.8373 25.3173 16.0499 24.9668 16.0805C24.836 16.0926 24.7044 16.0869 24.5728 16.0869L15.4986 16.0861Z" fill="#5183F4"/>
<path d="M15.4979 18.3672C18.5363 18.3672 21.5754 18.3672 24.6154 18.3672C24.7591 18.361 24.903 18.3677 25.0456 18.3874C25.1843 18.4044 25.3121 18.4731 25.4044 18.5804C25.4967 18.6876 25.547 18.8259 25.5458 18.9687C25.5632 19.3036 25.3962 19.5323 25.0731 19.6128C24.9191 19.6437 24.762 19.6562 24.6052 19.6499C18.5263 19.6499 12.4479 19.6499 6.3701 19.6499H6.25193C5.72881 19.6394 5.42629 19.4003 5.42786 18.9993C5.42944 18.5983 5.72724 18.3656 6.25823 18.3656C9.33864 18.3656 12.4185 18.3662 15.4979 18.3672Z" fill="#5183F4"/>
<path d="M10.7007 4.15378H15.0204C15.1519 4.14906 15.2836 4.15417 15.4143 4.16907C15.7491 4.22141 15.9264 4.44927 15.9367 4.77375C15.9494 4.91636 15.91 5.05874 15.8261 5.1734C15.7421 5.28805 15.6196 5.36683 15.4821 5.39452C15.3289 5.42814 15.1723 5.44248 15.0157 5.43719C12.1364 5.43719 9.25692 5.43719 6.37714 5.43719H6.25976C5.74058 5.42833 5.43411 5.18518 5.43648 4.78502C5.43884 4.38486 5.73506 4.15297 6.26685 4.15217C7.74429 4.15002 9.22225 4.15056 10.7007 4.15378Z" fill="#5183F4"/>
<path d="M8.86984 21.9236C9.7719 21.9236 10.674 21.9236 11.576 21.9236C12.0377 21.9236 12.3205 22.1764 12.3166 22.5621C12.3126 22.9477 12.0243 23.2062 11.5682 23.2062C9.77663 23.2121 7.98563 23.2121 6.19516 23.2062C5.72246 23.2062 5.41836 22.9244 5.43412 22.5347C5.44987 22.145 5.72798 21.926 6.20304 21.9244C7.09171 21.9204 7.98117 21.9236 8.86984 21.9236Z" fill="#5183F4"/>
</g>
<defs>
<clipPath id="clip0_149_3231">
<rect width="36" height="36" fill="white"/>
</clipPath>
</defs>
</svg>
