<svg width="60" height="60" viewBox="0 0 60 60" fill="none" xmlns="http://www.w3.org/2000/svg">
<path d="M13.1117 5.31954C14.521 5.0203 15.9782 5.02629 17.385 5.33711C17.4534 5.35272 17.5218 5.36834 17.5902 5.38591C23.0255 6.77582 26.2747 12.2955 24.8881 17.7351C24.8382 17.9303 24.8724 18.2397 24.9985 18.3705C26.0343 19.449 28.2868 21.6364 28.4119 21.7145C28.5428 21.5564 38.4283 11.6259 43.2294 6.79437C43.8949 6.12381 44.578 5.51475 45.4506 5.19363C46.1882 4.92385 46.9996 4.93637 47.7285 5.22877C48.5796 5.56941 49.252 6.17847 49.896 6.85098C50.9383 7.94222 52.0071 9.01134 53.1022 10.0583C53.9035 10.8275 54.6276 11.6317 54.912 12.7337C55.0365 13.2228 55.0288 13.7361 54.8895 14.2212C54.6198 15.1768 54.0374 15.9264 53.3309 16.6292C48.434 21.5027 38.4362 31.5376 38.2818 31.6996C39.3841 32.8006 40.4697 33.8704 41.5349 34.9606C41.7626 35.1939 41.962 35.2212 42.2639 35.1402C47.5673 33.7201 53.1247 36.9294 54.5407 42.2372C54.7195 42.8935 54.844 43.5634 54.913 44.2401C54.9649 44.7813 54.9455 45.3271 54.8553 45.8633C54.8549 45.8662 54.8549 45.8691 54.8553 45.8721C54.6208 46.8306 54.4429 47.8076 54.1371 48.7417C53.8204 49.7109 53.0309 49.8398 52.2999 49.1097C50.9318 47.7432 47.9474 44.7672 47.9073 44.7301L44.5799 48.0487C44.6972 48.1463 47.7412 51.1223 49.0907 52.4859C49.7074 53.1086 49.5617 53.8524 48.7663 54.2106C48.5763 54.3023 48.3784 54.3768 48.1751 54.4331C47.7842 54.5327 47.3891 54.6303 46.9897 54.7259C45.6172 55.0573 44.1891 55.0886 42.8033 54.8177H42.7818C37.6348 53.8143 34.0426 48.7231 34.8205 43.5334C34.9045 42.9771 35.2035 42.3553 35.0413 41.8887C34.8693 41.3909 32.3686 39.1333 31.5233 38.29C31.3914 38.4852 23.7203 46.2566 19.9727 49.9823C19.6765 50.2767 19.3187 50.502 18.9251 50.6421C14.8667 52.0086 10.7986 53.3546 6.73534 54.7093C6.278 54.8616 5.84217 54.926 5.46496 54.5473C5.08776 54.1686 5.16593 53.7284 5.31642 53.2784C6.67182 49.2082 8.01451 45.1332 9.38261 41.0669C9.50466 40.7051 9.70788 40.3759 9.97676 40.1045C13.7117 36.3427 17.4577 32.5914 21.2147 28.8505C21.3506 28.7158 21.5372 28.6318 21.7278 28.5069C20.474 27.2478 19.3443 26.1058 18.1971 24.9804C18.116 24.9013 17.899 24.9121 17.7612 24.9462C16.4211 25.2884 15.027 25.3664 13.6569 25.1756C7.2513 24.2786 3.319 17.5233 5.7034 11.5049C6.15976 10.3531 6.8399 10.2057 7.70669 11.0725C9.01681 12.3836 10.326 13.6961 11.6341 15.0099C11.7787 15.1563 11.8647 15.3603 11.9458 15.4862L15.3094 12.1149C15.2576 12.0583 15.1736 11.9617 15.0837 11.8709C13.6706 10.4556 12.2576 9.04029 10.8445 7.625C10.224 7.00032 10.3559 6.23704 11.1377 5.89932C11.4463 5.75467 11.7671 5.63742 12.0963 5.54891C12.4331 5.46497 12.7716 5.38851 13.1117 5.31954ZM11.8911 41.0318L14.7329 43.8848C14.8364 43.7872 14.9654 43.6671 15.0895 43.5432L23.9499 34.6766C24.592 34.0344 25.1793 33.9416 25.6268 34.4082C26.0744 34.8747 25.9611 35.4311 25.3337 36.0538C22.9538 38.4348 20.5759 40.8151 18.2 43.1947C17.5003 43.8936 16.7938 44.5876 16.1205 45.2542C17.0977 46.2439 18.0453 47.1998 18.9632 48.1219L47.8194 19.2441L44.9151 16.3412C44.8265 16.4882 44.7255 16.6273 44.6131 16.7571C40.4561 20.9216 36.297 25.0861 32.1361 29.2507C31.4735 29.9134 30.9263 29.9983 30.4611 29.5132C29.996 29.0281 30.0996 28.5235 30.7543 27.8725C34.9133 23.7079 39.0727 19.5434 43.2323 15.3788C43.3652 15.2461 43.4913 15.1075 43.5548 15.0402L40.715 12.1881L11.8911 41.0318ZM26.8953 23.0361C25.6659 21.8131 24.4454 20.5744 23.1946 19.367C22.7157 18.9054 22.5848 18.4544 22.8037 17.8053C23.438 15.9656 23.3906 13.9596 22.6701 12.1517C21.9496 10.3438 20.6039 8.85406 18.8772 7.95296C17.1251 7.02374 15.2684 6.78168 13.2465 7.24336C13.4126 7.421 13.527 7.55082 13.6482 7.67185C14.8651 8.89193 16.0827 10.1117 17.301 11.3311C17.8873 11.9168 17.8873 12.4243 17.301 13.0099C15.856 14.4617 14.4081 15.9108 12.9573 17.3573C12.3289 17.9849 11.852 17.9781 11.21 17.3378C10.0022 16.1314 8.79531 14.924 7.58942 13.7156C7.46629 13.5936 7.3373 13.4785 7.1829 13.333C7.13502 13.5107 7.09398 13.6327 7.07052 13.7576C6.34445 17.656 8.68879 21.6266 12.4696 22.8916C14.1887 23.4895 16.0606 23.4836 17.7759 22.875C18.3622 22.671 18.8157 22.753 19.2192 23.2147C19.401 23.4226 19.6101 23.6051 19.8056 23.8003L22.9649 26.9677L26.8953 23.0361ZM52.7006 46.7778C53.0142 45.7764 53.0553 44.5583 52.8393 43.4641C51.8572 38.4803 46.9428 35.6048 42.1379 37.2173C41.5515 37.4125 41.1176 37.3149 40.6926 36.8737C39.5688 35.721 37.0329 33.2135 36.8677 33.0563C35.6237 34.3116 33.0732 36.8991 32.9911 36.9928C34.2556 38.2617 35.4947 39.5208 36.7612 40.7555C37.2117 41.1948 37.328 41.634 37.1238 42.2401C35.8759 45.9609 37.287 49.8534 40.6232 51.8934C42.4799 53.0256 44.4832 53.3272 46.6663 52.848C46.5197 52.6879 43.8685 50.0174 42.6528 48.7973C42.0137 48.1551 42.0108 47.6866 42.645 47.0502C44.0561 45.6336 45.4692 44.2186 46.8842 42.8053C47.6063 42.083 48.0383 42.082 48.7692 42.815C50.065 44.12 51.3559 45.424 52.7006 46.7778ZM49.3487 17.7888C50.4002 16.7473 51.5074 15.6961 52.5579 14.5912C53.2224 13.8923 53.1335 12.8665 52.4093 12.1354C50.8999 10.6108 49.3832 9.093 47.8594 7.58205C47.0523 6.78168 46.0291 6.78559 45.221 7.5762C44.6288 8.15598 44.0542 8.75333 43.462 9.33311C43.0134 9.77136 42.5483 10.193 42.1427 10.5727L49.3487 17.7888ZM16.9863 49.2434L10.7771 43.0288C10.4966 43.8711 10.179 44.7857 9.8976 45.7198C9.8822 45.8058 9.88594 45.894 9.90858 45.9784C9.93121 46.0627 9.97217 46.1411 10.0286 46.2078C11.28 47.4852 12.5436 48.7511 13.8192 50.0057C13.9169 50.0974 14.1123 50.1755 14.2237 50.1414C15.1794 49.8456 16.1273 49.5264 16.9863 49.2434ZM11.8765 50.9378L9.08163 48.1443C8.63309 49.4991 8.18064 50.8705 7.69887 52.3258L11.8765 50.9378Z" fill="#5183F4"/>
<path d="M28.9995 32.0002C28.9972 32.2628 28.8925 32.5141 28.7078 32.7007C28.523 32.8874 28.2727 32.9948 28.0099 33C27.746 32.9975 27.4934 32.8929 27.3051 32.7081C27.1168 32.5234 27.0075 32.2729 27.0002 32.0093C26.9976 31.875 27.0225 31.7416 27.0731 31.6172C27.1238 31.4928 27.1993 31.38 27.295 31.2857C27.3906 31.1913 27.5045 31.1174 27.6297 31.0683C27.7549 31.0193 27.8887 30.9962 28.0231 31.0005C28.1536 30.9995 28.2831 31.0248 28.4036 31.075C28.5241 31.1252 28.6332 31.1992 28.7244 31.2926C28.8156 31.3859 28.887 31.4968 28.9343 31.6184C28.9815 31.74 29.0037 31.8699 28.9995 32.0002Z" fill="#5183F4"/>
</svg>
