<svg width="32" height="32" viewBox="0 0 32 32" fill="none" xmlns="http://www.w3.org/2000/svg">
<path d="M2.0001 29.2418V14.0115C1.99997 13.6145 2.05209 13.2192 2.1551 12.8359C2.71072 10.7678 4.53822 9.37081 6.72258 9.36268C9.02445 9.3533 11.3257 9.36268 13.6276 9.36268H14.0026V8.96871C14.0026 6.95197 14.0094 4.93461 13.9969 2.91787C13.9969 2.57643 14.0801 2.31441 14.3301 2.13994C14.4273 2.07462 14.5374 2.0308 14.6529 2.01139C14.7685 1.99198 14.8868 1.99743 15.0001 2.02737C15.5523 2.17287 16.062 2.4479 16.4869 2.82969C16.6643 2.98081 16.8901 3.06312 17.1231 3.06163C17.3561 3.06014 17.5808 2.97494 17.7563 2.82156C18.0727 2.53928 18.4364 2.31509 18.8307 2.15932C19.3217 1.9728 19.8656 1.98198 20.35 2.18496C20.7212 2.34 21.064 2.55578 21.3644 2.82344C21.5407 2.97593 21.766 3.05984 21.9991 3.05984C22.2322 3.05984 22.4574 2.97593 22.6338 2.82344C22.948 2.54482 23.3073 2.32173 23.6963 2.1637C24.1678 1.97709 24.6922 1.97441 25.1656 2.1562C25.561 2.3106 25.9255 2.53468 26.2419 2.81781C26.4216 2.97435 26.6523 3.0599 26.8906 3.0584C27.1289 3.05691 27.3585 2.96847 27.5363 2.80968C27.9458 2.44406 28.4347 2.1788 28.9644 2.03488C29.0885 1.99974 29.2197 1.99825 29.3446 2.03056C29.4694 2.06287 29.5835 2.12781 29.675 2.21873L29.6812 2.22436C29.7823 2.32508 29.8624 2.44476 29.9171 2.57654C29.9718 2.70831 30 2.84959 30 2.99228V20.153C29.9962 20.3421 29.9753 20.5305 29.9375 20.7158C29.7681 21.6402 29.2802 22.4758 28.5586 23.0773C27.8369 23.6788 26.9273 24.008 25.9881 24.0077C23.4377 24.0077 20.8871 24.0077 18.3363 24.0077H18V24.401C18 26.0011 18 27.6017 18 29.203C18 29.7696 17.6925 30.0485 17.1313 29.9878C16.6298 29.9395 16.1582 29.7272 15.7894 29.3838C15.6976 29.2993 15.6107 29.2093 15.5151 29.1286C15.0819 28.7647 14.6782 28.7659 14.2551 29.1336C14.1532 29.2218 14.0582 29.3212 13.9576 29.4088C13.7276 29.622 13.4549 29.7837 13.1575 29.8833C12.8602 29.9828 12.5451 30.0178 12.2332 29.986C11.6875 29.9387 11.1784 29.6918 10.8032 29.2925C10.5426 29.0242 10.2407 28.7653 9.85007 28.8897C9.5882 28.9735 9.34258 29.1624 9.13445 29.3531C8.43446 29.9947 7.49883 30.1948 6.64946 29.7909C6.31946 29.6345 6.03696 29.37 5.75009 29.1342C5.30322 28.7665 4.90384 28.759 4.46509 29.1411C4.40259 29.1955 4.34009 29.2512 4.28197 29.3106C3.93665 29.6627 3.48718 29.8943 3.0001 29.971C2.6576 30.0291 2.44448 30.0028 2.2626 29.8459C2.17833 29.7697 2.11131 29.6765 2.06603 29.5723C2.02076 29.4681 1.99828 29.3554 2.0001 29.2418ZM17.3088 10.7316C17.2057 10.7228 17.1563 10.7147 17.1075 10.7147C13.6394 10.7103 10.1701 10.694 6.70258 10.7078C4.73509 10.7159 3.33322 12.1642 3.3276 14.1585C3.32135 18.786 3.32135 23.4136 3.3276 28.0411C3.3276 28.1268 3.34072 28.2119 3.35072 28.3394C3.43135 28.2719 3.47197 28.2413 3.50885 28.2069C4.48134 27.3032 5.77259 27.3107 6.73134 28.2256C6.82735 28.3208 6.92876 28.4104 7.03508 28.4939C7.17932 28.608 7.35735 28.6708 7.54119 28.6726C7.72502 28.6744 7.90425 28.6151 8.0507 28.5039C8.18931 28.3943 8.32161 28.277 8.44696 28.1525C9.12945 27.5227 10.1107 27.3533 10.9413 27.7572C11.1986 27.8916 11.4355 28.0617 11.6451 28.2625C12.2432 28.8091 12.6419 28.8153 13.2332 28.2525C13.2782 28.21 13.3213 28.1637 13.3676 28.1224C13.7863 27.7463 14.3297 27.5391 14.8924 27.5411C15.4551 27.543 15.9971 27.754 16.4132 28.1331C16.4788 28.1956 16.5463 28.25 16.6707 28.3582V22.6894C16.6707 19.4764 16.6788 16.2634 16.665 13.0503C16.6625 12.2286 16.7882 11.4588 17.3088 10.7309V10.7316ZM15.3394 9.34892H15.7082C17.0938 9.34892 18.4788 9.34142 19.8638 9.34892C20.8763 9.35643 21.7613 9.68911 22.4557 10.4508C23.075 11.1293 23.335 11.9347 23.3307 12.8477C23.3207 15.1978 23.3207 17.5476 23.3307 19.8973C23.3369 21.6657 24.7263 22.8802 26.4413 22.6338C27.7381 22.4462 28.6694 21.3124 28.6706 19.8822C28.6748 14.5593 28.6748 9.23615 28.6706 3.91279C28.6706 3.83587 28.6556 3.75833 28.6456 3.65703C28.5831 3.6958 28.5463 3.71331 28.515 3.7377C27.4 4.60693 26.2606 4.58691 25.2025 3.68016C24.7144 3.26243 24.1613 3.26493 23.6825 3.68767C22.6544 4.59379 21.3763 4.60192 20.3463 3.70893C19.8175 3.25055 19.2907 3.25555 18.7569 3.72269C17.8038 4.55752 16.5519 4.58566 15.5613 3.79585C15.5019 3.74895 15.4363 3.71206 15.3413 3.6514L15.3394 9.34892ZM22.9644 22.6688C22 21.0379 22 21.0291 22 19.12C22 16.9788 22.0082 14.837 21.9969 12.6958C21.998 12.3819 21.925 12.0722 21.7839 11.7919C21.6428 11.5115 21.4375 11.2685 21.1848 11.0825C20.9321 10.8965 20.6391 10.7729 20.3296 10.7215C20.0202 10.6702 19.7029 10.6927 19.4038 10.7872C18.5563 11.0486 18 11.814 18 12.7489C17.9971 15.9707 17.9971 19.1929 18 22.4155C18 22.4949 18.0113 22.575 18.0188 22.6657L22.9644 22.6688Z" fill="#EBF5FE"/>
<path d="M10.8649 21.5929C10.9932 20.7935 10.5934 20.2119 9.94852 20.188C9.52367 20.1736 9.11354 19.9904 8.77764 19.6651C8.44174 19.3397 8.19755 18.889 8.08052 18.3784C7.94394 17.8007 7.98207 17.1804 8.18765 16.6354C8.39324 16.0905 8.75194 15.6591 9.19553 15.4231C9.40653 15.3126 9.4629 15.1782 9.44687 14.9249C9.43883 14.7858 9.44825 14.646 9.4748 14.5106C9.50306 14.3636 9.57046 14.2331 9.66594 14.1403C9.76142 14.0475 9.8793 13.9981 10.0002 14.0001C10.1216 14 10.2395 14.051 10.3349 14.1447C10.4303 14.2385 10.4976 14.3696 10.5262 14.5171C10.537 14.5576 10.5437 14.5998 10.5458 14.6424C10.5505 15.1801 10.7051 15.3572 11.0325 15.5795C11.6122 15.9737 11.9117 16.6413 11.9872 17.4627C12.0327 17.9648 11.8496 18.3209 11.5129 18.3752C11.1763 18.4295 10.9327 18.1348 10.8867 17.6294C10.8168 16.8681 10.2847 16.4106 9.72872 16.6336C9.31499 16.8009 9.06882 17.2746 9.11433 17.8311C9.13486 18.0852 9.22759 18.3216 9.37571 18.4976C9.52383 18.6736 9.71751 18.7773 9.92162 18.7901C10.7832 18.8463 11.4488 19.2826 11.8196 20.2856C11.9305 20.5866 11.9916 20.9125 11.9992 21.2437C12.0068 21.575 11.9608 21.9047 11.8639 22.2132C11.767 22.5217 11.6213 22.8025 11.4354 23.0388C11.2495 23.2752 11.0273 23.4622 10.7822 23.5886C10.596 23.6875 10.5345 23.8005 10.5531 24.0351C10.5626 24.1742 10.5554 24.3143 10.5319 24.4507C10.508 24.6053 10.4417 24.7447 10.3445 24.8449C10.2473 24.9452 10.1252 25 9.9992 25C9.87339 24.9981 9.75189 24.9425 9.65482 24.8425C9.55775 24.7425 9.49095 24.604 9.46549 24.45C9.37069 24.0041 9.15524 23.6129 8.85575 23.343C8.60694 23.1284 8.40082 22.8454 8.25325 22.5156C8.10568 22.1859 8.02058 21.8183 8.0045 21.4411C7.9776 20.9984 8.17309 20.6701 8.48494 20.63C8.8211 20.5867 9.05693 20.8426 9.10554 21.3053C9.18208 22.0104 9.46393 22.3671 9.98058 22.4195C10.1828 22.4368 10.3832 22.3629 10.5455 22.2112C10.7077 22.0595 10.8211 21.8402 10.8649 21.5929Z" fill="#EBF5FE"/>
</svg>
