<svg width="32" height="32" viewBox="0 0 32 32" fill="none" xmlns="http://www.w3.org/2000/svg">
<path d="M14.2018 27.8884C13.9767 27.8588 13.7523 27.8267 13.5297 27.7841C8.69095 26.8881 4.81503 22.8345 4.12432 17.9645C3.30251 12.177 6.61943 6.81332 12.168 4.98183C14.182 4.31724 16.235 4.22899 18.3115 4.66527C18.646 4.73562 18.92 4.87322 18.9917 5.23853C19.0962 5.76367 18.6639 6.13823 18.0969 6.04814C17.4996 5.95249 16.8998 5.83772 16.2981 5.81365C10.927 5.5952 6.37579 9.30075 5.5008 14.586C4.56769 20.2273 8.58459 25.699 14.2476 26.503C19.7282 27.2812 24.7048 23.9076 25.9903 18.5366C26.3546 17.0161 26.3403 15.4894 26.0169 13.9615C25.9149 13.479 26.1177 13.1236 26.5296 13.0359C26.9278 12.9477 27.2716 13.2143 27.3767 13.6869C28.7952 20.2459 24.5384 26.6036 17.8959 27.8285C17.7809 27.8495 17.6657 27.868 17.5503 27.8841C16.4395 28.0378 15.3129 28.0393 14.2018 27.8884Z" fill="#717171"/>
<path d="M20.8904 9.05271C20.8883 8.87274 20.922 8.69413 20.9896 8.52728C21.0572 8.36043 21.1574 8.20866 21.2843 8.08081C22.4976 6.84357 23.7077 5.60262 24.9327 4.37834C25.4465 3.86555 26.0105 3.88098 26.5404 4.37834C26.9059 4.72267 27.267 5.07255 27.617 5.43354C28.1265 5.95929 28.1253 6.54428 27.617 7.06016C26.4421 8.26285 25.2604 9.45936 24.0861 10.6633C23.9364 10.8252 23.7548 10.9546 23.5526 11.0431C23.3504 11.1317 23.1321 11.1776 22.9112 11.1779C22.5112 11.1822 22.1117 11.2217 21.7116 11.2273C21.2132 11.2341 20.9077 10.9336 20.8886 10.4337C20.8818 10.19 20.8892 9.26807 20.8904 9.05271ZM25.7087 5.49032C25.6123 5.61373 23.5766 7.75437 22.5934 8.69912C22.2409 9.03913 22.2354 9.38901 22.2947 9.79258C22.7492 9.87095 23.0856 9.75309 23.3942 9.40074C23.9761 8.73799 26.0439 6.66215 26.4452 6.25919L25.7087 5.49032Z" fill="#717171"/>
<path d="M15.6867 16.7156C18.4365 16.7156 20.7288 18.386 21.354 20.6859C21.4453 21.0427 21.4986 21.4082 21.5129 21.7762C21.5339 22.1884 21.2532 22.4803 20.8772 22.5044C20.4741 22.5303 20.1661 22.2822 20.1352 21.8503C20.0115 20.1422 19.0555 19.0358 17.5381 18.4243C15.9303 17.7763 14.4079 18.0886 13.0401 19.124C12.3098 19.6794 11.7755 20.3816 11.5715 21.2955C11.5412 21.467 11.5205 21.6401 11.5096 21.8139C11.4595 22.2711 11.1831 22.534 10.7731 22.5143C10.3743 22.4951 10.1041 22.1872 10.1177 21.738C10.1498 20.7155 10.5283 19.817 11.1652 19.0333C12.3926 17.5258 14.0004 16.7779 15.6867 16.7156Z" fill="#717171"/>
<path d="M15.8796 15.7424C15.4892 15.7515 15.1008 15.6824 14.7375 15.5393C14.3743 15.3962 14.0434 15.1819 13.7644 14.9091C13.4855 14.6363 13.2641 14.3105 13.1134 13.951C12.9626 13.5914 12.8856 13.2054 12.8867 12.8156C12.8892 12.0381 13.2004 11.2933 13.7521 10.7444C14.3038 10.1955 15.0511 9.88712 15.8302 9.88696C16.2284 9.88985 16.6219 9.97343 16.9869 10.1326C17.3518 10.2918 17.6805 10.5234 17.9531 10.8131C18.2256 11.1029 18.4364 11.4449 18.5725 11.8184C18.7087 12.1919 18.7674 12.5891 18.7451 12.9859C18.6994 13.7197 18.3798 14.4098 17.8494 14.9201C17.319 15.4304 16.6162 15.7238 15.8796 15.7424ZM17.3637 12.8224C17.3644 12.6195 17.3248 12.4185 17.2471 12.231C17.1694 12.0434 17.0551 11.8732 16.911 11.7301C16.7668 11.587 16.5957 11.4739 16.4074 11.3973C16.2191 11.3207 16.0174 11.2822 15.8141 11.284C15.4087 11.2832 15.0193 11.4423 14.7309 11.7266C14.4425 12.0109 14.2784 12.3975 14.2743 12.802C14.2719 13.2116 14.4315 13.6056 14.7186 13.8983C15.0056 14.191 15.3969 14.3588 15.8073 14.3651C16.218 14.3648 16.612 14.2024 16.9033 13.9135C17.1947 13.6245 17.3597 13.2323 17.3625 12.8224H17.3637Z" fill="#717171"/>
</svg>
