<svg width="33" height="32" viewBox="0 0 33 32" fill="none" xmlns="http://www.w3.org/2000/svg">
<path d="M4.5 13.1135C4.53618 12.5977 4.54955 12.0792 4.61524 11.5673C4.70041 10.8989 4.75997 10.216 4.94925 9.57384C5.67295 7.09859 7.34914 5.64819 9.86593 5.17086C11.3367 4.89236 12.8303 4.90016 14.3194 4.89236C16.0686 4.88401 17.8177 4.88791 19.5668 4.89236C20.0122 4.89236 20.3412 5.13799 20.4608 5.54237C20.5722 5.91276 20.4247 6.33552 20.0751 6.52322C19.8953 6.61462 19.6966 6.66251 19.495 6.66302C17.4497 6.67639 15.4039 6.64743 13.3597 6.69087C12.2619 6.71371 11.1524 6.77052 10.0752 6.9599C8.07117 7.31191 6.78243 8.70382 6.51243 10.7246C6.38225 11.678 6.31197 12.6386 6.302 13.6008C6.28419 15.8967 6.29978 18.1928 6.34877 20.4891C6.35773 21.2666 6.45787 22.0403 6.64715 22.7945C7.10753 24.5373 8.27324 25.6312 10.0469 25.9325C11.1892 26.1264 12.3638 26.191 13.5251 26.2071C15.6989 26.2372 17.8745 26.2071 20.0483 26.1642C20.7699 26.1535 21.4885 26.0699 22.1933 25.9147C24.0448 25.4936 25.2033 24.3173 25.5362 22.4503C25.7266 21.3814 25.785 20.278 25.8078 19.1919C25.8513 17.1093 25.8246 15.0251 25.8318 12.9419C25.8318 12.2652 26.4441 11.8235 27.0426 12.0686C27.4 12.2156 27.6048 12.4975 27.6037 12.8868C27.5998 15.1922 27.616 17.4986 27.5642 19.8029C27.5499 20.8389 27.4486 21.8718 27.2614 22.8908C26.7603 25.4736 24.8487 27.2765 22.2462 27.7305C20.8082 27.9811 19.3547 28.0034 17.904 28.0017C15.9238 28.0017 13.9431 27.9861 11.9635 27.946C10.8991 27.9238 9.83253 27.8246 8.82325 27.4592C6.68222 26.6856 5.33559 25.1756 4.85628 22.9476C4.68204 22.1383 4.65198 21.2978 4.55957 20.4713C4.53452 20.2429 4.52227 20.0129 4.5039 19.784L4.5 13.1135Z" fill="#EBF5FE"/>
<path d="M25.503 4.00002C25.8001 3.99903 26.0959 4.04048 26.3814 4.12311H26.3859C27.7548 4.52637 28.6872 5.96117 28.4696 7.33135C28.2246 8.87532 26.9665 9.9698 25.489 9.92691C23.981 9.88347 22.7613 8.77451 22.5943 7.30016C22.5068 6.55299 22.7078 5.80061 23.1561 5.19668C23.6044 4.59275 24.2662 4.18285 25.0064 4.0507C25.1504 4.02043 25.2969 4.00365 25.4439 4.00057L25.503 4.00002ZM25.5274 5.77903C25.2148 5.78179 24.9157 5.90724 24.6946 6.12839C24.4735 6.34954 24.3479 6.64871 24.345 6.96152C24.3484 7.27428 24.4733 7.57344 24.6933 7.7957C24.9132 8.01795 25.211 8.14586 25.5236 8.15235C25.6807 8.15199 25.8363 8.12063 25.9813 8.06006C26.1264 7.99949 26.2581 7.91091 26.3689 7.79937C26.4797 7.68784 26.5674 7.55555 26.6271 7.41006C26.6867 7.26457 26.7171 7.10874 26.7165 6.95149C26.7133 6.63829 26.5864 6.33908 26.3636 6.11913C26.1407 5.89917 25.8399 5.77632 25.5269 5.77736L25.5274 5.77903Z" fill="#EBF5FE"/>
<path d="M18.1406 18.7742C16.848 18.704 15.8476 18.1175 15.2792 16.8843C15.0699 16.4298 14.7782 16.0845 14.2844 15.9553C13.6047 15.7793 12.9679 16.0761 12.6444 16.7261C12.0766 17.8685 11.5199 19.017 10.9549 20.1605C10.7494 20.5799 10.3598 20.7894 9.97008 20.7103C9.41339 20.5989 9.07159 20.0146 9.31709 19.4988C9.92944 18.2127 10.5262 16.9178 11.2098 15.6718C11.8044 14.5929 12.8114 14.0905 14.0334 14.1362C15.3137 14.1846 16.2646 14.8123 16.8124 15.9842C17.0283 16.4465 17.3134 16.8069 17.8183 16.9389C18.4975 17.116 19.1349 16.8203 19.4589 16.1697C20.0278 15.0279 20.5839 13.8794 21.149 12.7353C21.3566 12.3154 21.7418 12.1059 22.136 12.1845C22.6927 12.2959 23.0345 12.8807 22.789 13.3965C22.1738 14.6904 21.5643 15.9915 20.8784 17.2469C20.3123 18.279 19.3442 18.7291 18.1406 18.7742Z" fill="#EBF5FE"/>
</svg>
