<svg width="25" height="24" viewBox="0 0 25 24" fill="none" xmlns="http://www.w3.org/2000/svg">
<path d="M6.89999 2L3.89999 6V20C3.89999 20.5304 4.11071 21.0391 4.48578 21.4142C4.86085 21.7893 5.36956 22 5.89999 22H19.9C20.4304 22 20.9391 21.7893 21.3142 21.4142C21.6893 21.0391 21.9 20.5304 21.9 20V6L18.9 2H6.89999Z" stroke="white" stroke-width="2" stroke-linecap="round" stroke-linejoin="round"/>
<path d="M3.89999 6H21.9" stroke="white" stroke-width="2" stroke-linecap="round" stroke-linejoin="round"/>
<path d="M16.9 10C16.9 11.0609 16.4786 12.0783 15.7284 12.8284C14.9783 13.5786 13.9609 14 12.9 14C11.8391 14 10.8217 13.5786 10.0716 12.8284C9.32142 12.0783 8.89999 11.0609 8.89999 10" stroke="white" stroke-width="2" stroke-linecap="round" stroke-linejoin="round"/>
</svg>
